<svg width="56" height="56" viewBox="0 0 56 56" fill="none" xmlns="http://www.w3.org/2000/svg">
<rect width="56" height="56" rx="8" fill="#12141A"/>
<path d="M35.6733 26.4134C36.6884 24.6835 37.1267 22.6755 36.925 20.68C36.6266 17.7067 34.9666 15.0784 32.2533 13.28L30.4116 16.0567C32.2766 17.2934 33.4116 19.055 33.6083 21.0134C33.699 21.9235 33.5857 22.8425 33.2766 23.7033C32.9675 24.5642 32.4705 25.3454 31.8216 25.99L29.835 27.9767L32.5316 28.7684C39.585 30.835 39.6666 37.9284 39.6666 38H43C43 35.0184 41.4066 29.1917 35.6733 26.4134Z" fill="#5678F9"/>
<path d="M23.833 28C27.5097 28 30.4997 25.01 30.4997 21.3334C30.4997 17.6567 27.5097 14.6667 23.833 14.6667C20.1563 14.6667 17.1663 17.6567 17.1663 21.3334C17.1663 25.01 20.1563 28 23.833 28ZM23.833 18C25.6713 18 27.1663 19.495 27.1663 21.3334C27.1663 23.1717 25.6713 24.6667 23.833 24.6667C21.9947 24.6667 20.4997 23.1717 20.4997 21.3334C20.4997 19.495 21.9947 18 23.833 18ZM26.333 29.6667H21.333C15.818 29.6667 11.333 34.1517 11.333 39.6667V41.3334H14.6663V39.6667C14.6663 35.99 17.6563 33 21.333 33H26.333C30.0097 33 32.9997 35.99 32.9997 39.6667V41.3334H36.333V39.6667C36.333 34.1517 31.848 29.6667 26.333 29.6667Z" fill="white"/>
</svg>
