<svg xmlns="http://www.w3.org/2000/svg" width="56" height="56" viewBox="0 0 56 56" fill="none"><rect width="56" height="56" rx="8" fill="#12141A"></rect><path d="M41 13H14.3333C12.495 13 11 14.495 11 16.3333V33C11 34.8383 12.495 36.3333 14.3333 36.3333H26V41.3333H21V44.6667H34.3333V41.3333H29.3333V36.3333H41C42.8383 36.3333 44.3333 34.8383 44.3333 33V16.3333C44.3333 14.495 42.8383 13 41 13ZM14.3333 33V16.3333H41L41.0017 33H14.3333Z" fill="white"></path><path d="M29.2449 24.6031L24.7506 22.2823L22 27.9626L24.0112 29L25.7551 25.3969L30.2494 27.7177L33 22.0374L30.9888 21L29.2449 24.6031Z" fill="#5678F9"></path></svg>