<svg xmlns="http://www.w3.org/2000/svg" width="56" height="56" viewBox="0 0 56 56" fill="none"><rect width="56" height="56" rx="8" fill="#12141A"></rect><path d="M35.917 11.3333H19.2503C17.412 11.3333 15.917 12.8283 15.917 14.6666V41.3333C15.917 43.1716 17.412 44.6666 19.2503 44.6666H35.917C37.7553 44.6666 39.2503 43.1716 39.2503 41.3333V14.6666C39.2503 12.8283 37.7553 11.3333 35.917 11.3333ZM19.2503 41.3333V14.6666H35.917L35.9203 41.3333H19.2503Z" fill="white"></path><path d="M27.5837 39.6666C28.5041 39.6666 29.2503 38.9205 29.2503 38C29.2503 37.0795 28.5041 36.3333 27.5837 36.3333C26.6632 36.3333 25.917 37.0795 25.917 38C25.917 38.9205 26.6632 39.6666 27.5837 39.6666Z" fill="#5678F9"></path><path d="M29.2449 24.6031L24.7506 22.2823L22 27.9626L24.0112 29L25.7551 25.3969L30.2494 27.7177L33 22.0374L30.9888 21L29.2449 24.6031Z" fill="#5678F9"></path></svg>