<svg xmlns="http://www.w3.org/2000/svg" width="20" height="20" viewBox="0 0 20 20" fill="none"><g id="Arrow/Right"><path id="Vector" d="M9.41665 16.0833C9.26387 15.9306 9.18387 15.7361 9.17665 15.5C9.16998 15.2639 9.24303 15.0694 9.39581 14.9167L13.4791 10.8333H4.16665C3.93054 10.8333 3.73248 10.7533 3.57248 10.5933C3.41304 10.4339 3.33331 10.2361 3.33331 10C3.33331 9.76389 3.41304 9.56583 3.57248 9.40583C3.73248 9.24639 3.93054 9.16667 4.16665 9.16667H13.4791L9.39581 5.08333C9.24303 4.93056 9.16998 4.73611 9.17665 4.5C9.18387 4.26389 9.26387 4.06944 9.41665 3.91667C9.56942 3.76389 9.76387 3.6875 9.99998 3.6875C10.2361 3.6875 10.4305 3.76389 10.5833 3.91667L16.0833 9.41667C16.1666 9.48611 16.2258 9.57278 16.2608 9.67667C16.2953 9.78111 16.3125 9.88889 16.3125 10C16.3125 10.1111 16.2953 10.2153 16.2608 10.3125C16.2258 10.4097 16.1666 10.5 16.0833 10.5833L10.5833 16.0833C10.4305 16.2361 10.2361 16.3125 9.99998 16.3125C9.76387 16.3125 9.56942 16.2361 9.41665 16.0833Z" fill="white"></path></g></svg>