<svg xmlns="http://www.w3.org/2000/svg" width="56" height="56" viewBox="0 0 56 56" fill="none"><rect width="56" height="56" rx="8" fill="#12141A"></rect><path d="M27.9999 31.3333H37.9999V34.6667H27.9999V31.3333ZM18.4883 24.1783L22.3099 28L18.4883 31.8217L20.8449 34.1783L27.0233 28L20.8449 21.8217L18.4883 24.1783Z" fill="#5678F9"></path><path d="M41.333 14.6667H14.6663C12.828 14.6667 11.333 16.1617 11.333 18V38C11.333 39.8384 12.828 41.3334 14.6663 41.3334H41.333C43.1713 41.3334 44.6663 39.8384 44.6663 38V18C44.6663 16.1617 43.1713 14.6667 41.333 14.6667ZM14.6663 38V18H41.333L41.3363 38H14.6663Z" fill="white"></path></svg>