<svg xmlns="http://www.w3.org/2000/svg" width="55" height="55" viewBox="0 0 55 55" fill="none"><path d="M48.125 28.1875H8.25V37.8125H17.875L19.9375 48.8125H36.4375V37.8125H48.125V28.1875Z" fill="#A6C8FC"></path><path d="M45.834 16.0413H38.959V9.16634C38.959 6.63863 36.9034 4.58301 34.3756 4.58301H20.6257C18.0979 4.58301 16.0423 6.63863 16.0423 9.16634V16.0413H9.16732C6.63961 16.0413 4.58398 18.097 4.58398 20.6247V34.3747C4.58398 36.9024 6.63961 38.958 9.16732 38.958H16.0423V45.833C16.0423 48.3607 18.0979 50.4163 20.6257 50.4163H34.3756C36.9034 50.4163 38.959 48.3607 38.959 45.833V38.958H45.834C48.3617 38.958 50.4173 36.9024 50.4173 34.3747V20.6247C50.4173 18.097 48.3617 16.0413 45.834 16.0413ZM45.834 34.3747H34.3756V43.5413H34.3779V45.833H20.6257V34.3747H9.16732V20.6247H20.6257V9.16634H34.3756V20.6247H45.834V34.3747Z" fill="#155FF6"></path><path d="M18.334 32.083V22.9163L11.459 27.4997L18.334 32.083ZM36.6673 32.083L43.5423 27.4997L36.6673 22.9163V32.083ZM22.9173 18.333H32.084L27.5007 11.458L22.9173 18.333ZM27.5007 43.5413L32.084 36.6663H22.9173L27.5007 43.5413Z" fill="#155FF6"></path><path d="M27.4993 32.0837C30.0307 32.0837 32.0827 30.0316 32.0827 27.5003C32.0827 24.969 30.0307 22.917 27.4993 22.917C24.968 22.917 22.916 24.969 22.916 27.5003C22.916 30.0316 24.968 32.0837 27.4993 32.0837Z" fill="#155FF6"></path></svg>