<svg xmlns="http://www.w3.org/2000/svg" width="40" height="45" viewBox="0 0 40 45" fill="none"><g clip-path="url(#clip0_3622_10647)"><path d="M4.61133 32.0625L20.3363 4.5L36.0613 32.0625H4.61133Z" fill="#A6C8FC"></path><path d="M37.9714 28.26C37.6373 28.0825 37.2827 27.9465 36.9156 27.855V17.145C37.294 17.0674 37.6579 16.9308 37.9939 16.74C38.9144 16.2089 39.5866 15.3333 39.8625 14.3058C40.1384 13.2784 39.9956 12.1832 39.4653 11.2613C38.9351 10.3393 38.0609 9.66607 37.035 9.38969C36.0092 9.11331 34.9158 9.2564 33.9953 9.7875C33.6515 9.97625 33.3405 10.2194 33.0742 10.5075L23.8414 5.1525C23.9517 4.78021 24.0047 4.39328 23.9986 4.005C23.9986 2.94281 23.5774 1.92412 22.8275 1.17304C22.0776 0.421954 21.0605 0 20 0C18.9395 0 17.9224 0.421954 17.1725 1.17304C16.4226 1.92412 16.0014 2.94281 16.0014 4.005C15.9953 4.39328 16.0483 4.78021 16.1586 5.1525L6.92578 10.485C6.65883 10.2037 6.34771 9.96809 6.00474 9.7875C5.08424 9.2564 3.99081 9.11331 2.96497 9.38969C1.93914 9.66607 1.06494 10.3393 0.534683 11.2613C0.00442974 12.1832 -0.13844 13.2784 0.137503 14.3058C0.413446 15.3333 1.0856 16.2089 2.0061 16.74C2.34211 16.9308 2.70598 17.0674 3.08438 17.145V27.855C2.7173 27.9465 2.36274 28.0825 2.02856 28.26C1.10806 28.7911 0.43591 29.6667 0.159967 30.6942C-0.115976 31.7216 0.026894 32.8168 0.557147 33.7388C1.0874 34.6607 1.9616 35.3339 2.98744 35.6103C4.01327 35.8867 5.10671 35.7436 6.0272 35.2125C6.35943 35.0256 6.66223 34.7906 6.92578 34.515L16.1586 39.8475C16.0483 40.2198 15.9953 40.6067 16.0014 40.995C16.0014 42.0572 16.4226 43.0759 17.1725 43.827C17.9224 44.578 18.9395 45 20 45C21.0605 45 22.0776 44.578 22.8275 43.827C23.5774 43.0759 23.9986 42.0572 23.9986 40.995C24.0026 40.5666 23.9342 40.1406 23.7965 39.735L32.9844 34.425C33.2679 34.7406 33.602 35.0068 33.9728 35.2125C34.4286 35.4755 34.9316 35.646 35.4532 35.7142C35.9747 35.7825 36.5046 35.7472 37.0126 35.6103C37.5205 35.4735 37.9966 35.2377 38.4136 34.9166C38.8305 34.5955 39.1803 34.1953 39.4429 33.7388C39.7054 33.2822 39.8756 32.7784 39.9438 32.256C40.0119 31.7336 39.9767 31.2029 39.84 30.6942C39.7034 30.1854 39.4681 29.7086 39.1474 29.2909C38.8268 28.8733 38.4272 28.523 37.9714 28.26ZM7.91421 30.8025C7.82486 30.4308 7.68103 30.0744 7.48738 29.745C7.30674 29.4084 7.07139 29.1042 6.79099 28.845L18.8768 7.8525C19.6109 8.06258 20.3891 8.06258 21.1232 7.8525L33.2539 28.845C32.9735 29.1042 32.7382 29.4084 32.5575 29.745C32.3639 30.0744 32.2201 30.4308 32.1307 30.8025H7.91421ZM32.1307 12.15C31.9869 12.6672 31.9466 13.2078 32.0121 13.7407C32.0777 14.2736 32.2478 14.7882 32.5126 15.255C32.7795 15.7265 33.1408 16.1378 33.5737 16.463C34.0066 16.7882 34.5019 17.0204 35.0286 17.145V27.855H34.8714L22.7631 6.9075L22.8754 6.75L32.1307 12.15ZM17.1246 6.75C17.1167 6.78708 17.1167 6.82542 17.1246 6.8625L5.12863 27.9H4.97138V17.145C5.49805 17.0204 5.99337 16.7882 6.4263 16.463C6.85924 16.1378 7.22047 15.7265 7.48738 15.255C7.75225 14.7882 7.92235 14.2736 7.98789 13.7407C8.05343 13.2078 8.01312 12.6672 7.86928 12.15L17.1246 6.75ZM22.9653 38.25C22.5892 37.8374 22.1312 37.5081 21.6205 37.2833C21.1098 37.0586 20.5578 36.9433 20 36.945C19.4633 36.9402 18.9313 37.0455 18.4368 37.2545C17.9422 37.4634 17.4957 37.7716 17.1246 38.16L7.86928 32.85V32.715H32.0858V32.9625L22.9653 38.25Z" fill="#155FF6"></path></g><defs><clipPath id="clip0_3622_10647"><rect width="40" height="45" fill="white"></rect></clipPath></defs></svg>