<svg xmlns="http://www.w3.org/2000/svg" width="20" height="20" viewBox="0 0 20 20" fill="none"><g clip-path="url(#clip0_219_3013)"><path d="M2.96547 6.58237C2.62989 6.58237 2.34516 6.69939 2.11112 6.93344C1.87707 7.16749 1.76001 7.44834 1.76001 7.77613V12.809C1.76001 13.145 1.87703 13.4295 2.11112 13.6636C2.34516 13.8976 2.62989 14.0147 2.96547 14.0147C3.3008 14.0147 3.58379 13.8977 3.81422 13.6636C4.04418 13.4296 4.15948 13.145 4.15948 12.809V7.77613C4.15948 7.4483 4.04245 7.16749 3.80837 6.93344C3.57429 6.69939 3.29326 6.58237 2.96547 6.58237ZM12.6569 2.06432L13.488 0.531281C13.5425 0.429788 13.5231 0.35196 13.4296 0.297234C13.3281 0.250044 13.2501 0.273956 13.1955 0.367279L12.3529 1.91257C11.6114 1.58474 10.8272 1.42053 10.0002 1.42053C9.17302 1.42053 8.38871 1.58478 7.64752 1.91257L6.80482 0.367279C6.75006 0.273956 6.67206 0.250255 6.57078 0.297234C6.47703 0.352206 6.45763 0.429788 6.51239 0.531281L7.34346 2.06432C6.50077 2.49407 5.82961 3.09257 5.33024 3.86113C4.83088 4.63011 4.58109 5.47045 4.58109 6.38361H15.4075C15.4075 5.47066 15.1577 4.63029 14.6584 3.86113C14.1589 3.09257 13.4917 2.49407 12.6569 2.06432ZM7.85226 4.29415C7.76239 4.38423 7.65505 4.42906 7.53028 4.42906C7.40526 4.42906 7.30011 4.38423 7.21432 4.29415C7.12853 4.20449 7.08564 4.09757 7.08564 3.97238C7.08564 3.84761 7.12853 3.74048 7.21432 3.65061C7.30011 3.56094 7.40551 3.51611 7.53028 3.51611C7.65505 3.51611 7.76239 3.56094 7.85226 3.65061C7.94192 3.74069 7.98697 3.84761 7.98697 3.97238C7.98672 4.09736 7.94171 4.20449 7.85226 4.29415ZM12.7856 4.29415C12.6996 4.38423 12.5942 4.42906 12.4697 4.42906C12.3446 4.42906 12.2373 4.38423 12.1476 4.29415C12.0578 4.20449 12.0129 4.09757 12.0129 3.97238C12.0129 3.84761 12.0578 3.74048 12.1476 3.65061C12.2373 3.56094 12.3446 3.51611 12.4697 3.51611C12.5944 3.51611 12.6996 3.56094 12.7856 3.65061C12.8714 3.74069 12.9143 3.84761 12.9143 3.97238C12.9143 4.09736 12.8714 4.20449 12.7856 4.29415ZM4.62757 14.5998C4.62757 14.9591 4.75234 15.2632 5.00192 15.5128C5.25171 15.7624 5.55584 15.8872 5.91487 15.8872H6.78105L6.79292 18.5444C6.79292 18.8799 6.90994 19.1649 7.14399 19.3989C7.37804 19.633 7.6591 19.75 7.98668 19.75C8.32205 19.75 8.60695 19.633 8.84103 19.3989C9.07512 19.1649 9.19214 18.88 9.19214 18.5444V15.8874H10.8073V18.5444C10.8073 18.8799 10.9243 19.1649 11.1584 19.3989C11.3925 19.633 11.6771 19.75 12.0127 19.75C12.3481 19.75 12.633 19.633 12.8671 19.3989C13.1012 19.1649 13.2181 18.88 13.2181 18.5444V15.8874H14.096C14.4471 15.8874 14.7473 15.7626 14.9973 15.513C15.2469 15.2634 15.3717 14.9593 15.3717 14.6001V6.80455H4.62757V14.5998ZM17.0344 6.58237C16.7066 6.58237 16.4258 6.69767 16.1917 6.92763C15.9577 7.15801 15.8406 7.44101 15.8406 7.77613V12.809C15.8406 13.145 15.9576 13.4295 16.1917 13.6636C16.4258 13.8977 16.7068 14.0147 17.0344 14.0147C17.3698 14.0147 17.6547 13.8977 17.8888 13.6636C18.1229 13.4295 18.2399 13.145 18.2399 12.809V7.77613C18.2399 7.44098 18.1229 7.15801 17.8888 6.92763C17.6547 6.69767 17.3698 6.58237 17.0344 6.58237Z" fill="white"></path></g><defs><clipPath id="clip0_219_3013"><rect width="19.5" height="19.5" fill="white" transform="translate(0.25 0.25)"></rect></clipPath></defs></svg>