<svg xmlns="http://www.w3.org/2000/svg" width="17" height="19" viewBox="0 0 17 19" fill="none"><g clip-path="url(#clip0_219_3007)"><path d="M8.73098 4.78643C9.76651 4.78643 10.6749 4.38207 11.4562 3.57331C12.2375 2.76455 12.6282 1.82411 12.6282 0.751987C12.6282 0.634237 12.6189 0.466908 12.6003 0.25C12.4639 0.268592 12.3616 0.284086 12.2934 0.29648C11.3384 0.432822 10.4982 0.900724 9.77271 1.70016C9.04723 2.49962 8.68448 3.35486 8.68448 4.26587C8.68448 4.37121 8.69998 4.54476 8.73098 4.78643ZM12.4422 19C13.1801 19 13.9955 18.4949 14.8884 17.4848C15.7814 16.4746 16.4634 15.2878 16.9347 13.9244C15.1799 13.0196 14.3024 11.7212 14.3024 10.0294C14.3024 8.61639 15.0124 7.40792 16.4324 6.40395C15.4465 5.17067 14.1443 4.55403 12.5259 4.55403C11.8438 4.55403 11.2206 4.65629 10.6564 4.8608L10.3029 4.99095L9.82853 5.17687C9.51848 5.29462 9.23634 5.35351 8.98211 5.35351C8.78368 5.35351 8.52323 5.28532 8.20081 5.14898L7.83805 5.00024L7.49392 4.8608C6.99163 4.65009 6.45217 4.54474 5.87549 4.54474C4.33148 4.54474 3.09132 5.06532 2.15498 6.10647C1.21865 7.14761 0.750488 8.52033 0.750488 10.2246C0.750488 12.6229 1.50078 14.8385 3.0014 16.8712C4.04315 18.2904 4.99498 19 5.85688 19C6.22274 19 6.58549 18.9287 6.94513 18.7862L7.4009 18.6003L7.76366 18.4701C8.27212 18.2904 8.74028 18.2005 9.16813 18.2005C9.6208 18.2005 10.1417 18.3152 10.7308 18.5445L11.0191 18.656C11.6206 18.8853 12.0949 19 12.4422 19Z" fill="white"></path></g><defs><clipPath id="clip0_219_3007"><rect width="16.185" height="18.75" fill="white" transform="translate(0.75 0.25)"></rect></clipPath></defs></svg>