<svg xmlns="http://www.w3.org/2000/svg" width="35" height="35" viewBox="0 0 35 35" fill="none"><circle cx="17.1827" cy="17.1817" r="5.09091" fill="#A6C8FC"></circle><path d="M2.918 17.5001H5.83467C5.8312 15.9669 6.13047 14.4482 6.71532 13.031C7.30017 11.6138 8.15909 10.326 9.24279 9.24154C10.3042 8.17665 11.5635 7.32951 12.9499 6.74779C15.8075 5.56061 19.0162 5.53915 21.8895 6.688C21.9176 7.63222 22.3128 8.52826 22.9912 9.18566C23.6695 9.84306 24.5775 10.21 25.5222 10.2084C27.5434 10.2084 29.168 8.58383 29.168 6.56258C29.168 4.54133 27.5434 2.91675 25.5222 2.91675C24.5174 2.91675 23.6088 3.31925 22.9511 3.97404C19.4059 2.55508 15.3342 2.57696 11.8167 4.06008C10.083 4.78881 8.50781 5.84834 7.17925 7.17946C5.84753 8.50727 4.78748 10.082 4.05842 11.8155C3.30183 13.615 2.91404 15.548 2.918 17.5001ZM28.2536 22.053C27.6688 23.4413 26.8288 24.6897 25.7599 25.7586C24.6909 26.8276 23.4426 27.6676 22.0528 28.2524C19.1952 29.4396 15.9864 29.461 13.1132 28.3122C13.0851 27.3679 12.6899 26.4719 12.0115 25.8145C11.3331 25.1571 10.4251 24.7902 9.4805 24.7917C7.45925 24.7917 5.83467 26.4163 5.83467 28.4376C5.83467 30.4588 7.45925 32.0834 9.4805 32.0834C10.4853 32.0834 11.3938 31.6809 12.0515 31.0261C13.7833 31.7255 15.6337 32.0845 17.5013 32.0834C20.3692 32.089 23.1748 31.2473 25.5661 29.6642C27.9574 28.0811 29.8279 25.8269 30.9428 23.1847C31.7004 21.3854 32.0887 19.4523 32.0847 17.5001H29.168C29.1717 19.0637 28.8607 20.612 28.2536 22.053Z" fill="#155FF6"></path><path d="M17.4988 10.8821C13.85 10.8821 10.8809 13.8512 10.8809 17.5C10.8809 21.1487 13.85 24.1179 17.4988 24.1179C21.1475 24.1179 24.1167 21.1487 24.1167 17.5C24.1167 13.8512 21.1475 10.8821 17.4988 10.8821ZM17.4988 21.2012C15.4586 21.2012 13.7975 19.5402 13.7975 17.5C13.7975 15.4598 15.4586 13.7987 17.4988 13.7987C19.539 13.7987 21.2 15.4598 21.2 17.5C21.2 19.5402 19.539 21.2012 17.4988 21.2012Z" fill="#155FF6"></path></svg>