<svg xmlns="http://www.w3.org/2000/svg" width="55" height="55" viewBox="0 0 55 55" fill="none"><path d="M21 16H15.5L14.5 39.5H21V16Z" fill="#A6C8FC"></path><path d="M13.7507 43.5416H16.0423V50.4166H20.6257V43.5416H22.9173C23.5251 43.5416 24.108 43.3001 24.5378 42.8704C24.9675 42.4406 25.209 41.8577 25.209 41.2499V13.7499C25.209 13.1421 24.9675 12.5592 24.5378 12.1295C24.108 11.6997 23.5251 11.4583 22.9173 11.4583H20.6257V4.58325H16.0423V11.4583H13.7507C13.1429 11.4583 12.56 11.6997 12.1302 12.1295C11.7004 12.5592 11.459 13.1421 11.459 13.7499V41.2499C11.459 41.8577 11.7004 42.4406 12.1302 42.8704C12.56 43.3001 13.1429 43.5416 13.7507 43.5416ZM16.0423 16.0416H20.6257V38.9582H16.0423V16.0416ZM32.084 38.9582H34.3756V45.8332H38.959V38.9582H41.2506C41.8584 38.9582 42.4413 38.7168 42.8711 38.287C43.3009 37.8573 43.5423 37.2744 43.5423 36.6666V18.3333C43.5423 17.7255 43.3009 17.1426 42.8711 16.7128C42.4413 16.283 41.8584 16.0416 41.2506 16.0416H38.959V9.16658H34.3756V16.0416H32.084C31.4762 16.0416 30.8933 16.283 30.4635 16.7128C30.0338 17.1426 29.7923 17.7255 29.7923 18.3333V36.6666C29.7923 37.2744 30.0338 37.8573 30.4635 38.287C30.8933 38.7168 31.4762 38.9582 32.084 38.9582ZM34.3756 20.6249H38.959V34.3749H34.3756V20.6249Z" fill="#155FF6"></path></svg>