<svg xmlns="http://www.w3.org/2000/svg" width="35" height="35" viewBox="0 0 35 35" fill="none"><g id="bx-chart 1"><path id="Vector 282" d="M29.1673 16.4062H6.92773V29.5312H29.1673V16.4062Z" fill="#A6C8FC"></path><path id="Vector" d="M7.29167 30.625H27.7083C29.3169 30.625 30.625 29.3169 30.625 27.7083V7.29167C30.625 5.68313 29.3169 4.375 27.7083 4.375H7.29167C5.68313 4.375 4.375 5.68313 4.375 7.29167V27.7083C4.375 29.3169 5.68313 30.625 7.29167 30.625ZM7.29167 7.29167H27.7083L27.7098 27.7083H7.29167V7.29167Z" fill="#155FF6"></path><path id="Vector_2" d="M19.7647 17.0013L13.9313 14.0846L10.3613 21.2231L12.9717 22.5269L15.2351 17.9988L21.0684 20.9154L24.6384 13.7769L22.028 12.4731L19.7647 17.0013Z" fill="#155FF6"></path></g></svg>