<svg xmlns="http://www.w3.org/2000/svg" width="35" height="35" viewBox="0 0 35 35" fill="none"><g id="bx-devices 2"><path id="Vector 290" d="M6.04492 20.6819V28L16.2267 29.9091V26.091H30.2267V18.4546C17.4995 24.0546 8.8025 22.2728 6.04492 20.6819Z" fill="#A6C8FC"></path><path id="Vector" d="M29.168 4.375H10.2096C8.60109 4.375 7.29297 5.68313 7.29297 7.29167V10.2083H5.83464C4.22609 10.2083 2.91797 11.5165 2.91797 13.125V27.7083C2.91797 29.3169 4.22609 30.625 5.83464 30.625H14.5846C16.1932 30.625 17.5013 29.3169 17.5013 27.7083H29.168C30.7765 27.7083 32.0846 26.4002 32.0846 24.7917V7.29167C32.0846 5.68313 30.7765 4.375 29.168 4.375ZM14.5803 27.7083H5.83464V13.125H14.5846L14.5803 27.7083ZM29.1636 24.7917H17.5013V13.125C17.5013 11.5165 16.1932 10.2083 14.5846 10.2083H10.2096V7.29167H29.168L29.1636 24.7917Z" fill="#155FF6"></path></g></svg>