<svg xmlns="http://www.w3.org/2000/svg" width="35" height="35" viewBox="0 0 35 35" fill="none"><path d="M16.4056 4.375L5.10352 11.3021L18.2285 18.2292L29.5306 10.5729L16.4056 4.375Z" fill="#A6C8FC"></path><path d="M17.1348 9.11462L5.10352 16.4063L18.2285 24.0625L29.8952 16.4063L17.1348 9.11462Z" fill="#A6C8FC"></path><path d="M32.0821 11.6652C32.0818 11.4049 32.0119 11.1495 31.8795 10.9253C31.7472 10.7012 31.5573 10.5166 31.3296 10.3906L18.1725 3.09893C17.9563 2.97982 17.7135 2.91736 17.4666 2.91736C17.2198 2.91736 16.977 2.97982 16.7608 3.09893L3.6679 10.3323C3.44045 10.4582 3.2508 10.6427 3.11861 10.8665C2.98641 11.0904 2.91646 11.3456 2.91602 11.6056C2.91557 11.8656 2.98464 12.1209 3.11607 12.3453C3.2475 12.5696 3.43651 12.7547 3.66352 12.8814L16.8206 20.2314C17.0372 20.3531 17.2814 20.4172 17.5299 20.4174C17.7784 20.4177 18.0227 20.3541 18.2396 20.2329L31.3325 12.9412C31.5599 12.8147 31.7494 12.6297 31.8812 12.4053C32.013 12.181 32.0823 11.9254 32.0821 11.6652ZM17.5323 17.2871L7.3779 11.6156L17.4652 6.04185L27.621 11.6696L17.5323 17.2871Z" fill="#155FF6"></path><path d="M29.9175 16.2253L17.4998 23.1233L5.08206 16.2253L3.66602 18.7745L16.791 26.0662C17.0076 26.1865 17.2513 26.2496 17.499 26.2496C17.7468 26.2496 17.9905 26.1865 18.2071 26.0662L31.3321 18.7745L29.9175 16.2253Z" fill="#155FF6"></path><path d="M29.9175 22.0587L17.4998 28.9566L5.08206 22.0587L3.66602 24.6079L16.791 31.8995C17.0076 32.0198 17.2513 32.083 17.499 32.083C17.7468 32.083 17.9905 32.0198 18.2071 31.8995L31.3321 24.6079L29.9175 22.0587Z" fill="#155FF6"></path></svg>