<svg xmlns="http://www.w3.org/2000/svg" width="35" height="35" viewBox="0 0 35 35" fill="none"><path d="M31.5 16.9166C23.5667 17.85 10.6944 17.3055 5.25 16.9166V29.1666L25.6667 28.5833L29.75 25.6666L31.5 16.9166Z" fill="#A6C8FC"></path><path d="M23.3327 2.91663H11.666C6.84039 2.91663 2.91602 6.841 2.91602 11.6666V29.1666C2.91602 29.5534 3.06966 29.9243 3.34315 30.1978C3.61664 30.4713 3.98757 30.625 4.37435 30.625H23.3327C28.1583 30.625 32.0827 26.7006 32.0827 21.875V11.6666C32.0827 6.841 28.1583 2.91663 23.3327 2.91663ZM29.166 21.875C29.166 25.092 26.5498 27.7083 23.3327 27.7083H5.83268V11.6666C5.83268 8.44954 8.44893 5.83329 11.666 5.83329H23.3327C26.5498 5.83329 29.166 8.44954 29.166 11.6666V21.875Z" fill="#155FF6"></path><path d="M13.8535 18.9584C15.0616 18.9584 16.041 17.979 16.041 16.7709C16.041 15.5628 15.0616 14.5834 13.8535 14.5834C12.6454 14.5834 11.666 15.5628 11.666 16.7709C11.666 17.979 12.6454 18.9584 13.8535 18.9584Z" fill="#155FF6"></path><path d="M21.1465 18.9584C22.3546 18.9584 23.334 17.979 23.334 16.7709C23.334 15.5628 22.3546 14.5834 21.1465 14.5834C19.9384 14.5834 18.959 15.5628 18.959 16.7709C18.959 17.979 19.9384 18.9584 21.1465 18.9584Z" fill="#155FF6"></path></svg>