<svg xmlns="http://www.w3.org/2000/svg" width="35" height="35" viewBox="0 0 35 35" fill="none"><path d="M17.4993 2.91675C9.4581 2.91675 2.91602 9.45883 2.91602 17.5001C2.91602 25.5413 9.4581 32.0834 17.4993 32.0834C25.5406 32.0834 32.0827 25.5413 32.0827 17.5001C32.0827 9.45883 25.5406 2.91675 17.4993 2.91675ZM17.4993 29.1667C11.0666 29.1667 5.83268 23.9328 5.83268 17.5001C5.83268 11.0674 11.0666 5.83341 17.4993 5.83341C23.9321 5.83341 29.166 11.0674 29.166 17.5001C29.166 23.9328 23.9321 29.1667 17.4993 29.1667Z" fill="#155FF6"></path><path d="M17.5 7.53372V17.5H27.4662C27.4695 16.1903 27.214 14.8928 26.7143 13.6822C26.2146 12.4716 25.4806 11.3716 24.5545 10.4455C23.6284 9.51937 22.5284 8.78539 21.3178 8.2857C20.1071 7.78601 18.8097 7.53045 17.5 7.53372Z" fill="#A6C8FC"></path></svg>