<svg xmlns="http://www.w3.org/2000/svg" width="35" height="35" viewBox="0 0 35 35" fill="none"><rect x="6.36328" y="12.7273" width="21" height="14.6364" fill="#A6C8FC"></rect><path d="M27.7083 20.4167H24.7917V24.7917H20.4167V27.7083H24.7917V32.0833H27.7083V27.7083H32.0833V24.7917H27.7083V20.4167ZM5.83333 27.7083H10.2083V24.7917H7.29167V21.875H4.375V26.25C4.375 26.6368 4.52865 27.0077 4.80214 27.2812C5.07563 27.5547 5.44656 27.7083 5.83333 27.7083ZM27.7083 5.83333C27.7083 5.44656 27.5547 5.07563 27.2812 4.80214C27.0077 4.52865 26.6368 4.375 26.25 4.375H21.875V7.29167H24.7917V10.2083H27.7083V5.83333ZM7.29167 7.29167H10.2083V4.375H5.83333C5.44656 4.375 5.07563 4.52865 4.80214 4.80214C4.52865 5.07563 4.375 5.44656 4.375 5.83333V10.2083H7.29167V7.29167ZM4.375 13.125H7.29167V18.9583H4.375V13.125ZM24.7917 13.125H27.7083V17.5H24.7917V13.125ZM13.125 4.375H18.9583V7.29167H13.125V4.375ZM13.125 24.7917H17.5V27.7083H13.125V24.7917Z" fill="#155FF6"></path></svg>