<svg xmlns="http://www.w3.org/2000/svg" width="35" height="35" viewBox="0 0 35 35" fill="none"><g id="bx-server 1"><path id="Vector 298" d="M5.5 14V6.5L24.5 6L26 14.5L5.5 14Z" fill="#A6C8FC"></path><path id="Vector" d="M29.166 4.375H5.83268C5.05913 4.375 4.31727 4.68229 3.77029 5.22927C3.22331 5.77625 2.91602 6.51812 2.91602 7.29167V13.125C2.91602 13.8985 3.22331 14.6404 3.77029 15.1874C4.31727 15.7344 5.05913 16.0417 5.83268 16.0417H29.166C29.9396 16.0417 30.6814 15.7344 31.2284 15.1874C31.7754 14.6404 32.0827 13.8985 32.0827 13.125V7.29167C32.0827 6.51812 31.7754 5.77625 31.2284 5.22927C30.6814 4.68229 29.9396 4.375 29.166 4.375ZM5.83268 13.125V7.29167H29.166V13.125H5.83268ZM29.166 18.9583H5.83268C5.05913 18.9583 4.31727 19.2656 3.77029 19.8126C3.22331 20.3596 2.91602 21.1015 2.91602 21.875V27.7083C2.91602 28.4819 3.22331 29.2237 3.77029 29.7707C4.31727 30.3177 5.05913 30.625 5.83268 30.625H29.166C29.9396 30.625 30.6814 30.3177 31.2284 29.7707C31.7754 29.2237 32.0827 28.4819 32.0827 27.7083V21.875C32.0827 21.1015 31.7754 20.3596 31.2284 19.8126C30.6814 19.2656 29.9396 18.9583 29.166 18.9583ZM5.83268 27.7083V21.875H29.166V27.7083H5.83268Z" fill="#155FF6"></path><path id="Vector_2" d="M24.791 8.75H27.7077V11.6667H24.791V8.75ZM20.416 8.75H23.3327V11.6667H20.416V8.75ZM24.791 23.3333H27.7077V26.25H24.791V23.3333ZM20.416 23.3333H23.3327V26.25H20.416V23.3333Z" fill="#155FF6"></path></g></svg>