<svg xmlns="http://www.w3.org/2000/svg" width="35" height="35" viewBox="0 0 35 35" fill="none"><g id="bx-stopwatch 1"><path id="Vector 297" d="M7.5 18.5C10.3333 20.3333 18.4 22.9 28 18.5C24.8333 27 16.3 38.9 7.5 18.5Z" fill="#A6C8FC"></path><path id="Vector" d="M17.5007 7.29175C11.0679 7.29175 5.83398 12.5257 5.83398 18.9584C5.83398 25.3911 11.0679 30.6251 17.5007 30.6251C23.9334 30.6251 29.1673 25.3911 29.1673 18.9584C29.1673 12.5257 23.9334 7.29175 17.5007 7.29175ZM17.5007 27.7084C12.675 27.7084 8.75065 23.784 8.75065 18.9584C8.75065 14.1328 12.675 10.2084 17.5007 10.2084C22.3263 10.2084 26.2507 14.1328 26.2507 18.9584C26.2507 23.784 22.3263 27.7084 17.5007 27.7084Z" fill="#155FF6"></path><path id="Vector_2" d="M16.0417 13.1251H18.9583V20.4167H16.0417V13.1251ZM13.125 2.91675H21.875V5.83341H13.125V2.91675ZM28.1356 11.2395L25.219 8.32279L27.281 6.26071L30.1977 9.17737L28.1356 11.2395Z" fill="#155FF6"></path></g></svg>