<svg xmlns="http://www.w3.org/2000/svg" width="35" height="35" viewBox="0 0 35 35" fill="none"><path d="M30 17.5H4.5V30.5H30V17.5Z" fill="#A6C8FC"></path><path d="M23.334 17.5H26.2507V23.3333H23.334V17.5Z" fill="#155FF6"></path><path d="M29.166 10.2083V7.29167C29.166 5.68313 27.8579 4.375 26.2493 4.375H7.29102C4.87893 4.375 2.91602 6.33792 2.91602 8.75V26.25C2.91602 29.4598 5.53227 30.625 7.29102 30.625H29.166C30.7746 30.625 32.0827 29.3169 32.0827 27.7083V13.125C32.0827 11.5165 30.7746 10.2083 29.166 10.2083ZM7.29102 7.29167H26.2493V10.2083H7.29102C6.91552 10.1915 6.56098 10.0306 6.30121 9.7589C6.04144 9.48725 5.89646 9.12587 5.89646 8.75C5.89646 8.37413 6.04144 8.01275 6.30121 7.7411C6.56098 7.46945 6.91552 7.30846 7.29102 7.29167ZM29.166 27.7083H7.30852C6.63477 27.6908 5.83268 27.424 5.83268 26.25V12.8552C6.2906 13.02 6.77622 13.125 7.29102 13.125H29.166V27.7083Z" fill="#155FF6"></path></svg>