<svg xmlns="http://www.w3.org/2000/svg" width="55" height="55" viewBox="0 0 55 55" fill="none"><path d="M50.452 27.2417C37.2815 28.7912 15.9116 27.8873 6.87305 27.2417V47.5785L40.7678 46.6101L47.5467 41.768L50.452 27.2417Z" fill="#A6C8FC"></path><path d="M36.8947 4H17.5263C9.51505 4 3 10.5151 3 18.5263V47.5789C3 48.2211 3.25507 48.8369 3.70911 49.2909C4.16315 49.7449 4.77895 50 5.42105 50H36.8947C44.906 50 51.421 43.4849 51.421 35.4737V18.5263C51.421 10.5151 44.906 4 36.8947 4ZM46.5789 35.4737C46.5789 40.8145 42.2356 45.1579 36.8947 45.1579H7.8421V18.5263C7.8421 13.1855 12.1855 8.84211 17.5263 8.84211H36.8947C42.2356 8.84211 46.5789 13.1855 46.5789 18.5263V35.4737Z" fill="#155FF6"></path><path d="M21.1589 30.6318C23.1646 30.6318 24.7905 29.0059 24.7905 27.0002C24.7905 24.9946 23.1646 23.3687 21.1589 23.3687C19.1533 23.3687 17.5273 24.9946 17.5273 27.0002C17.5273 29.0059 19.1533 30.6318 21.1589 30.6318Z" fill="#155FF6"></path><path d="M33.2644 30.6318C35.2701 30.6318 36.896 29.0059 36.896 27.0002C36.896 24.9946 35.2701 23.3687 33.2644 23.3687C31.2587 23.3687 29.6328 24.9946 29.6328 27.0002C29.6328 29.0059 31.2587 30.6318 33.2644 30.6318Z" fill="#155FF6"></path></svg>