<svg xmlns="http://www.w3.org/2000/svg" width="40" height="40" viewBox="0 0 40 40" fill="none"><g clip-path="url(#clip0_3472_10637)"><path d="M7 22.5C10.5 25.5 20.8 29.7 34 22.5C29.1667 32.1667 17 45.7 7 22.5Z" fill="#A6C8FC"></path><path d="M20 6.66675C11.8683 6.66675 5 13.5351 5 21.6667C5 29.7984 11.8683 36.6667 20 36.6667C28.1317 36.6667 35 29.7984 35 21.6667C35 13.5351 28.1317 6.66675 20 6.66675ZM20 33.3334C13.6767 33.3334 8.33333 27.9901 8.33333 21.6667C8.33333 15.3434 13.6767 10.0001 20 10.0001C26.3233 10.0001 31.6667 15.3434 31.6667 21.6667C31.6667 27.9901 26.3233 33.3334 20 33.3334Z" fill="#155FF6"></path><path d="M21.6664 20V13.3334H18.3331V23.3334H28.3331V20H21.6664ZM28.8064 6.17836L31.1597 3.81836L36.1764 8.81836L33.8214 11.18L28.8064 6.17836ZM11.1631 6.17836L6.17974 11.1767L3.81641 8.82336L8.79974 3.82336L11.1631 6.17836Z" fill="#155FF6"></path></g><defs><clipPath id="clip0_3472_10637"><rect width="40" height="40" fill="white"></rect></clipPath></defs></svg>