<svg xmlns="http://www.w3.org/2000/svg" width="16" height="16" viewBox="0 0 16 16" fill="none"><path d="M8 0.25C12.25 0.25 15.75 3.75 15.75 8C15.75 12.2812 12.25 15.75 8 15.75C3.71875 15.75 0.25 12.2812 0.25 8C0.25 3.75 3.71875 0.25 8 0.25ZM13.4062 4C13 3.46875 12.5312 3 12 2.59375L10.0312 4.5625C10.5938 4.90625 11.0938 5.40625 11.4375 5.96875L13.4062 4ZM8 11C9.65625 11 11 9.6875 11 8C11 6.34375 9.65625 5 8 5C6.3125 5 5 6.34375 5 8C5 9.6875 6.3125 11 8 11ZM3.96875 2.59375C3.4375 3 2.96875 3.46875 2.5625 4L4.53125 5.96875C4.875 5.40625 5.375 4.90625 5.9375 4.5625L3.96875 2.59375ZM2.5625 12.0312C2.96875 12.5625 3.4375 13.0312 3.96875 13.4375L5.9375 11.4688C5.375 11.125 4.875 10.625 4.53125 10.0625L2.5625 12.0312ZM12 13.4375C12.5312 13.0312 13 12.5625 13.4062 12.0312L11.4375 10.0625C11.0938 10.625 10.5938 11.125 10.0312 11.4688L12 13.4375Z" fill="white"></path></svg>