<svg xmlns="http://www.w3.org/2000/svg" width="55" height="55" viewBox="0 0 55 55" fill="none"><path d="M9.5 32.5V44L25.5 47V41H47.5V29C27.5 37.8 13.8333 35 9.5 32.5Z" fill="#A6C8FC"></path><path d="M45.834 6.875H16.0423C13.5146 6.875 11.459 8.93062 11.459 11.4583V16.0417H9.16732C6.63961 16.0417 4.58398 18.0973 4.58398 20.625V43.5417C4.58398 46.0694 6.63961 48.125 9.16732 48.125H22.9173C25.445 48.125 27.5006 46.0694 27.5006 43.5417H45.834C48.3617 43.5417 50.4173 41.486 50.4173 38.9583V11.4583C50.4173 8.93062 48.3617 6.875 45.834 6.875ZM22.9104 43.5417H9.16732V20.625H22.9173L22.9104 43.5417ZM45.8271 38.9583H27.5006V20.625C27.5006 18.0973 25.445 16.0417 22.9173 16.0417H16.0423V11.4583H45.834L45.8271 38.9583Z" fill="#155FF6"></path></svg>