<svg xmlns="http://www.w3.org/2000/svg" width="73" height="72" viewBox="0 0 73 72" fill="none"><g id="currency 1"><path id="Vector" d="M32.6254 5V5.00387C15.5194 5.00387 1.6293 18.8921 1.6293 36C1.6293 53.1079 15.5194 67 32.6254 67C36.9029 67 40.9828 66.1321 44.6926 64.5629C45.0142 64.4273 45.328 64.282 45.6419 64.1367C48.8454 66.3281 52.723 67.3106 56.5835 66.909C58.7442 66.6905 60.8398 66.0437 62.7479 65.0066C66.0306 63.2176 68.6131 60.3723 70.0765 56.9321C70.7132 55.4285 71.1201 53.8376 71.2834 52.2129V52.209C71.508 49.9982 71.2853 47.7647 70.6286 45.6417V45.6379C70.4695 45.1254 70.2852 44.6211 70.0765 44.1268V44.1229C69.6609 43.1455 69.1516 42.2106 68.5558 41.3313V41.3275C68.2596 40.8916 67.9428 40.4701 67.6065 40.0644V40.0605C67.27 39.6526 66.9145 39.2608 66.541 38.8865C65.6559 38.0098 64.6746 37.2358 63.6157 36.5792C63.6177 36.3855 63.6216 36.1918 63.6216 35.9961C63.6216 18.8882 49.7314 5 32.6254 5ZM31.6568 7.03993V20.0176H19.3068C20.332 16.1373 21.6048 12.3266 23.1174 8.60911C25.87 7.66421 28.7481 7.13533 31.6568 7.03993ZM33.5941 7.03993C36.4845 7.1368 39.2605 7.65598 41.8758 8.52581C43.4015 12.2695 44.6828 16.1081 45.7116 20.0176H33.5941V7.03993ZM44.309 9.4615C49.4285 11.6928 53.792 15.3593 56.8722 20.0176H47.7109C46.7881 16.4337 45.6522 12.91 44.309 9.4615ZM20.6648 9.58549C19.3446 12.9936 18.2281 16.4771 17.3211 20.0176H8.37871C11.4022 15.4458 15.6632 11.8278 20.6648 9.58549ZM7.33065 21.9549H16.8407C15.8533 26.2494 15.2753 30.6278 15.1146 35.0314H3.66342C3.82228 30.2754 5.15511 25.8643 7.32872 21.9549H7.33065ZM18.8147 21.9549H31.6568V35.0314H17.0247C17.1797 30.6764 17.788 26.3331 18.8147 21.9549ZM33.5941 21.9549H46.2056C47.2304 26.3331 47.829 30.6784 47.984 35.0314H33.5941V21.9549ZM48.1952 21.9549H57.9202C60.0977 25.8681 61.4809 30.2773 61.6494 35.0314H60.4251C57.0379 33.8125 53.3433 33.7444 49.9135 34.8376C49.7444 30.4991 49.1691 26.186 48.1952 21.9549ZM54.9039 36.0039C57.5213 35.999 60.0912 36.7027 62.3409 38.0404C64.5907 39.3781 66.4363 41.2999 67.6821 43.6018C68.1327 44.4332 68.5012 45.3065 68.7824 46.2094C69.0681 47.1319 69.2609 48.0807 69.3578 49.0416C69.4062 49.5298 69.4333 50.0296 69.4333 50.5294V50.5333C69.4326 51.517 69.334 52.4983 69.1389 53.4624C68.6646 55.7832 67.6275 57.9519 66.1187 59.7779C64.7561 61.4325 63.0435 62.7644 61.1042 63.6776C59.165 64.5907 57.0474 65.0625 54.9039 65.0589C52.2861 65.0634 49.716 64.3591 47.4662 63.0207C45.2164 61.6823 43.371 59.7597 42.1257 57.4571C41.2124 55.7734 40.6428 53.9249 40.45 52.0192C40.3017 50.5442 40.3755 49.0534 40.6689 47.6003V47.5964C40.7658 47.1257 40.884 46.6627 41.0254 46.2074V46.2035C41.1668 45.7502 41.3295 45.3066 41.5136 44.8726V44.8688C41.697 44.4368 41.9013 44.014 42.1257 43.6018V43.5979C42.3485 43.1872 42.5926 42.7882 42.8522 42.4026V42.3988C43.1137 42.0113 43.3947 41.6432 43.6891 41.2848V41.281C45.0515 39.6259 46.7644 38.2939 48.7042 37.3813C50.6439 36.4688 52.7602 35.9983 54.9039 36.0039ZM3.66342 36.9686H15.0874C15.0681 41.2965 15.4788 45.6437 16.3776 50.049H7.33065C5.08182 46.0442 3.82499 41.5589 3.66536 36.9686H3.66342ZM16.9956 36.9686H31.6568V50.049H18.3478C17.4306 45.7498 16.9773 41.3646 16.9956 36.9686ZM33.5941 36.9686H45.5818C44.3174 37.8379 43.1797 38.8784 42.2013 40.0605V40.0644C41.8662 40.4712 41.5484 40.8896 41.252 41.3275V41.3313C40.6612 42.207 40.1478 43.1407 39.7313 44.1229V44.1268C39.5226 44.6211 39.3383 45.1254 39.1792 45.6379V45.6417C39.0176 46.1577 38.8818 46.6814 38.7724 47.2109V47.2148C38.7569 47.2962 38.753 47.3833 38.7355 47.4666C38.5767 48.3055 38.4856 49.1714 38.4605 50.049H33.5941V36.9686ZM54.8884 41.8118C54.6347 41.8254 54.3955 41.9344 54.2188 42.1169C54.042 42.2994 53.9408 42.5419 53.9353 42.7959V43.8401C52.0658 44.2469 50.5489 45.6088 50.5489 47.5131C50.5489 49.7662 52.5637 51.4942 54.9039 51.4942C56.3181 51.4942 57.3216 52.4512 57.3216 53.5341C57.3216 54.6171 56.3181 55.576 54.9039 55.576C53.4897 55.576 52.4862 54.6171 52.4862 53.5341C52.48 53.2779 52.3763 53.0337 52.1964 52.8512C52.0164 52.6687 51.7737 52.5617 51.5176 52.5519C51.2615 52.5617 51.0187 52.6687 50.8388 52.8512C50.6588 53.0337 50.5552 53.2779 50.5489 53.5341C50.5489 55.4675 52.0368 57.0038 53.9353 57.4048V58.2668C53.9415 58.5231 54.0451 58.7673 54.2251 58.9497C54.4051 59.1322 54.6478 59.2393 54.9039 59.249C55.16 59.2393 55.4027 59.1322 55.5827 58.9497C55.7627 58.7673 55.8663 58.5231 55.8725 58.2668V57.2072C57.742 56.8003 59.2589 55.4404 59.2589 53.5341C59.2589 51.7054 57.833 49.5356 54.9155 49.5569H54.9039C53.4897 49.5569 52.4862 48.5961 52.4862 47.5131C52.4862 46.4457 53.4665 45.5042 54.8497 45.479C54.8864 45.4824 54.9232 45.4837 54.9601 45.4829C56.3413 45.51 57.3216 46.4476 57.3216 47.5131C57.3273 47.7697 57.4308 48.0144 57.6108 48.1973C57.7908 48.3802 58.0338 48.4874 58.2902 48.4973C58.5467 48.4874 58.7897 48.3802 58.9697 48.1973C59.1497 48.0144 59.2531 47.7697 59.2589 47.5131C59.2589 45.5817 57.771 44.0396 55.8725 43.6386V42.7959C55.8666 42.5368 55.761 42.2899 55.5777 42.1066C55.3944 41.9233 55.1476 41.8177 54.8884 41.8118ZM8.37871 51.9863H16.8174C17.6371 55.4397 18.708 58.8286 20.0216 62.1259C15.2931 59.8642 11.2685 56.3593 8.37871 51.9863ZM18.7876 51.9863H31.6568V64.9659C28.5372 64.8601 25.4547 64.2551 22.5265 63.1739C20.9801 59.5518 19.7297 55.8103 18.7876 51.9863ZM33.5941 51.9863H38.5147C38.5186 52.0599 38.5166 52.1354 38.5244 52.209V52.2129C38.5806 52.765 38.6639 53.3094 38.7743 53.8441V53.848C38.9902 54.9052 39.3107 55.9383 39.7313 56.9321V56.936C40.1466 57.9135 40.6559 58.8485 41.252 59.7275V59.7314C41.7751 60.5063 42.3776 61.225 43.0227 61.9011C42.8309 62.3758 42.6411 62.8504 42.4357 63.327C39.5892 64.3203 36.6075 64.8723 33.5941 64.9639V51.9863Z" fill="#155FF6" stroke="#155FF6"></path></g></svg>