<svg xmlns="http://www.w3.org/2000/svg" width="73" height="72" viewBox="0 0 73 72" fill="none"><g id="forex 1"><path id="Vector" d="M41.3 52.7999H53.3M41.3 64.7999H60.5M60.5 45.5999C60.5 43.6904 59.7414 41.859 58.3912 40.5088C57.0409 39.1585 55.2096 38.3999 53.3 38.3999C51.3904 38.3999 49.5591 39.1585 48.2088 40.5088C46.8586 41.859 46.1 43.6904 46.1 45.5999V64.7999M26.9 64.7999C24.3539 64.7999 21.9121 63.7885 20.1118 61.9882C18.3114 60.1878 17.3 57.746 17.3 55.1999M41.3 14.4C43.8461 14.4 46.2879 15.4114 48.0882 17.2117C49.8886 19.0121 50.9 21.4539 50.9 24M12.5 38.3999H20.9C22.4913 38.3999 24.0174 37.7678 25.1426 36.6426C26.2679 35.5174 26.9 33.9912 26.9 32.3999C26.9 30.8087 26.2679 29.2825 25.1426 28.1573C24.0174 27.0321 22.4913 26.4 20.9 26.4H18.5C16.9087 26.4 15.3826 25.7678 14.2574 24.6426C13.1321 23.5174 12.5 21.9912 12.5 20.4C12.5 18.8087 13.1321 17.2825 14.2574 16.1573C15.3826 15.0321 16.9087 14.4 18.5 14.4H26.9M22.1 7.19995V14.4M17.3 38.3999V45.5999" stroke="#155FF6" stroke-width="3.5" stroke-linecap="round" stroke-linejoin="round"></path></g></svg>