<svg xmlns="http://www.w3.org/2000/svg" width="73" height="72" viewBox="0 0 73 72" fill="none"><g id="gold (1) 1"><path id="Vector" d="M4.82 34.4736C5.82252 34.4736 6.78397 34.8719 7.49286 35.5808C8.20175 36.2897 8.6 37.2511 8.6 38.2536C8.6 38.4446 8.67586 38.6277 8.81088 38.7627C8.94591 38.8978 9.12904 38.9736 9.32 38.9736C9.51095 38.9736 9.69409 38.8978 9.82912 38.7627C9.96414 38.6277 10.04 38.4446 10.04 38.2536C10.0419 37.2517 10.4408 36.2913 11.1492 35.5829C11.8577 34.8744 12.8181 34.4755 13.82 34.4736C14.011 34.4736 14.1941 34.3978 14.3291 34.2627C14.4641 34.1277 14.54 33.9446 14.54 33.7536C14.54 33.5627 14.4641 33.3795 14.3291 33.2445C14.1941 33.1095 14.011 33.0336 13.82 33.0336C12.8181 33.0317 11.8577 32.6329 11.1492 31.9244C10.4408 31.2159 10.0419 30.2556 10.04 29.2536C10.04 29.0627 9.96414 28.8795 9.82912 28.7445C9.69409 28.6095 9.51095 28.5336 9.32 28.5336C9.12904 28.5336 8.94591 28.6095 8.81088 28.7445C8.67586 28.8795 8.6 29.0627 8.6 29.2536C8.5981 30.2556 8.19924 31.2159 7.49076 31.9244C6.78229 32.6329 5.82193 33.0317 4.82 33.0336C4.62904 33.0336 4.44591 33.1095 4.31088 33.2445C4.17586 33.3795 4.1 33.5627 4.1 33.7536C4.1 33.9446 4.17586 34.1277 4.31088 34.2627C4.44591 34.3978 4.62904 34.4736 4.82 34.4736ZM9.32 31.896C9.77469 32.6604 10.4132 33.2989 11.1776 33.7536C10.412 34.2036 9.77294 34.8402 9.32 35.604C8.86908 34.8386 8.22953 34.2016 7.4624 33.7536C8.23091 33.3019 8.87246 32.6628 9.3272 31.896H9.32ZM59 20.9736C60.0019 20.9755 60.9623 21.3744 61.6708 22.0829C62.3792 22.7913 62.7781 23.7517 62.78 24.7536C62.78 24.9446 62.8559 25.1277 62.9909 25.2627C63.1259 25.3978 63.309 25.4736 63.5 25.4736C63.691 25.4736 63.8741 25.3978 64.0091 25.2627C64.1441 25.1277 64.22 24.9446 64.22 24.7536C64.2219 23.7517 64.6208 22.7913 65.3292 22.0829C66.0377 21.3744 66.9981 20.9755 68 20.9736C68.191 20.9736 68.3741 20.8978 68.5091 20.7627C68.6441 20.6277 68.72 20.4446 68.72 20.2536C68.72 20.0627 68.6441 19.8795 68.5091 19.7445C68.3741 19.6095 68.191 19.5336 68 19.5336C66.9981 19.5317 66.0377 19.1329 65.3292 18.4244C64.6208 17.7159 64.2219 16.7556 64.22 15.7536C64.22 15.5627 64.1441 15.3795 64.0091 15.2445C63.8741 15.1095 63.691 15.0336 63.5 15.0336C63.309 15.0336 63.1259 15.1095 62.9909 15.2445C62.8559 15.3795 62.78 15.5627 62.78 15.7536C62.7781 16.7556 62.3792 17.7159 61.6708 18.4244C60.9623 19.1329 60.0019 19.5317 59 19.5336C58.809 19.5336 58.6259 19.6095 58.4909 19.7445C58.3559 19.8795 58.28 20.0627 58.28 20.2536C58.28 20.4446 58.3559 20.6277 58.4909 20.7627C58.6259 20.8978 58.809 20.9736 59 20.9736ZM63.5 18.396C63.9547 19.1604 64.5933 19.7989 65.3576 20.2536C64.592 20.7036 63.9529 21.3402 63.5 22.104C63.0471 21.3402 62.408 20.7036 61.6424 20.2536C62.4067 19.7989 63.0453 19.1604 63.5 18.396ZM32 14.22C33.0019 14.2219 33.9623 14.6208 34.6708 15.3293C35.3792 16.0377 35.7781 16.9981 35.78 18C35.78 18.191 35.8559 18.3741 35.9909 18.5091C36.1259 18.6442 36.309 18.72 36.5 18.72C36.691 18.72 36.8741 18.6442 37.0091 18.5091C37.1441 18.3741 37.22 18.191 37.22 18C37.2219 16.9981 37.6208 16.0377 38.3292 15.3293C39.0377 14.6208 39.9981 14.2219 41 14.22C41.191 14.22 41.3741 14.1442 41.5091 14.0091C41.6441 13.8741 41.72 13.691 41.72 13.5C41.72 13.3091 41.6441 13.1259 41.5091 12.9909C41.3741 12.8559 41.191 12.78 41 12.78C39.9981 12.7781 39.0377 12.3793 38.3292 11.6708C37.6208 10.9623 37.2219 10.002 37.22 9.00003C37.22 8.80907 37.1441 8.62594 37.0091 8.49091C36.8741 8.35589 36.691 8.28003 36.5 8.28003C36.309 8.28003 36.1259 8.35589 35.9909 8.49091C35.8559 8.62594 35.78 8.80907 35.78 9.00003C35.7781 10.002 35.3792 10.9623 34.6708 11.6708C33.9623 12.3793 33.0019 12.7781 32 12.78C31.809 12.78 31.6259 12.8559 31.4909 12.9909C31.3559 13.1259 31.28 13.3091 31.28 13.5C31.28 13.691 31.3559 13.8741 31.4909 14.0091C31.6259 14.1442 31.809 14.22 32 14.22ZM36.5 11.6424C36.9547 12.4068 37.5933 13.0453 38.3576 13.5C37.5933 13.9547 36.9547 14.5933 36.5 15.3576C36.0453 14.5933 35.4067 13.9547 34.6424 13.5C35.4067 13.0453 36.0453 12.4068 36.5 11.6424Z" fill="#155FF6"></path><path id="Vector_2" d="M8.8304 43.992C8.77917 44.0442 8.73771 44.1052 8.708 44.172L4.388 53.3304C4.34627 53.4232 4.3247 53.5239 4.3247 53.6256C4.3247 53.7274 4.34627 53.828 4.388 53.9208C4.42739 54.0148 4.48626 54.0993 4.56073 54.1688C4.6352 54.2383 4.72357 54.2912 4.82 54.324L25.4336 61.2288L46.0328 68.184C46.0996 68.1945 46.1676 68.1945 46.2344 68.184C46.3253 68.1818 46.4153 68.1648 46.5008 68.1336L46.58 68.0832C46.6272 68.057 46.6729 68.0282 46.7168 67.9968L68.5112 46.0224C68.5965 45.9371 68.659 45.8318 68.693 45.716C68.7269 45.6003 68.7313 45.4779 68.7056 45.36L66.1568 33.8976V33.8328C66.1587 33.8065 66.1587 33.78 66.1568 33.7536C66.1273 33.6807 66.0832 33.6145 66.0272 33.5592C65.9747 33.5102 65.9137 33.4712 65.8472 33.444H65.804L59.396 31.284L56.8184 20.16C56.8043 20.1045 56.7825 20.0511 56.7536 20.0016C56.7235 19.9473 56.6873 19.8965 56.6456 19.8504L56.5952 19.8072L56.5016 19.728H56.4296L56.3432 19.6848L42.5912 15.0768C42.4668 15.0377 42.3341 15.0331 42.2073 15.0636C42.0805 15.094 41.9643 15.1583 41.8712 15.2496L34.2968 22.8528L31.2944 21.8448C31.17 21.8057 31.0373 21.8011 30.9105 21.8316C30.7837 21.862 30.6675 21.9263 30.5744 22.0176L8.8304 43.9848V43.992ZM9.7088 45.396L16.0304 47.52H16.0736L22.4528 49.68L24.6128 59.5008L5.9936 53.28L9.7088 45.396ZM64.1264 34.3728L43.52 55.2168L38.2424 53.4456L58.82 32.6016L64.1264 34.3728ZM26.6864 56.6928L25.8656 58.428L24.0368 50.22L28.976 51.84L26.6864 56.6928ZM30.3368 52.3296L33.2168 53.3088H33.2744L43.1024 56.592L45.2624 66.4128L26.6432 60.1704L30.3368 52.3296ZM35.924 52.6824L33.7136 51.9624H33.656L30.1856 50.796L23.396 48.4776L23.2952 48.4344L17.2976 46.4256L18.428 44.0352L21.0056 38.5848L33.7568 42.8616L35.1968 49.3416L35.924 52.6824ZM46.6808 66.0528L44.5208 56.268L65.0336 35.5032L67.1936 45.288L46.6808 66.0528ZM37.3208 52.3152L37.0112 50.9184L35.1608 42.5304L55.6952 21.7728L57.8552 31.5504L37.3208 52.3152ZM42.5624 16.56L54.8024 20.664L34.1744 41.4792L21.9344 37.3824L35.0096 24.1848L42.5624 16.56ZM31.2584 23.3712L33.1664 24.012L20.12 37.1952C20.0668 37.2446 20.0229 37.3031 19.9904 37.368L15.9224 45.9648L10.652 44.1936L31.2584 23.3712Z" fill="#155FF6" stroke="#155FF6"></path></g></svg>