<svg xmlns="http://www.w3.org/2000/svg" width="55" height="55" viewBox="0 0 55 55" fill="none"><g clip-path="url(#clip0_4552_19256)"><path d="M8.5 6.5V27V49H29V6.5H8.5Z" fill="#A6C8FC"></path><path d="M5 9.11111V44.8889C5 47.7077 7.29233 50 10.1111 50H45.8889C48.7077 50 51 47.7077 51 44.8889V9.11111C51 6.29233 48.7077 4 45.8889 4H10.1111C7.29233 4 5 6.29233 5 9.11111ZM45.8914 44.8889H10.1111V9.11111H45.8889L45.8914 44.8889Z" fill="#155FF6"></path><path d="M25.4449 14.2222H30.556V39.7777H25.4449V14.2222ZM35.6671 21.8888H40.7782V39.7777H35.6671V21.8888ZM15.2227 26.9999H20.3338V39.7777H15.2227V26.9999Z" fill="#155FF6"></path></g><defs><clipPath id="clip0_4552_19256"><rect width="46" height="46" fill="white" transform="translate(5 4)"></rect></clipPath></defs></svg>