<svg xmlns="http://www.w3.org/2000/svg" width="100" height="14" viewBox="0 0 100 14" fill="none"><path d="M8 2C8.31935 2 8.63871 2 8.96774 2C8.96774 3.65 8.96774 5.3 8.96774 7C9.2871 7 9.60645 7 9.93548 7C9.93548 5.35 9.93548 3.7 9.93548 2C10.3081 2 10.6806 2 11.0645 2C11.0645 3.65 11.0645 5.3 11.0645 7C14.6839 7 18.3032 7 22.0323 7C22.0323 6.68064 22.0323 6.36129 22.0323 6.03226C18.7323 6.03226 15.4323 6.03226 12.0323 6.03226C12.0323 4.70161 12.0323 3.37097 12.0323 2C12.3516 2 12.671 2 13 2C13 2.95806 13 3.91613 13 4.90323C14.65 4.90323 16.3 4.90323 18 4.90323C18 3.94516 18 2.9871 18 2C18.3194 2 18.6387 2 18.9677 2C18.9677 3.01129 18.9677 4.02258 18.9677 5.06452C19.2871 5.06452 19.6065 5.06452 19.9355 5.06452C19.9355 4.05323 19.9355 3.04194 19.9355 2C20.2548 2 20.5742 2 20.9032 2C20.9032 2.95806 20.9032 3.91613 20.9032 4.90323C21.2226 4.90323 21.5419 4.90323 21.871 4.90323C21.871 3.94516 21.871 2.9871 21.871 2C22.2435 2 22.6161 2 23 2C23 5.61935 23 9.23871 23 12.9677C22.6274 12.9677 22.2548 12.9677 21.871 12.9677C21.871 11.3177 21.871 9.66774 21.871 7.96774C21.5516 7.96774 21.2323 7.96774 20.9032 7.96774C20.9032 9.61774 20.9032 11.2677 20.9032 12.9677C20.5839 12.9677 20.2645 12.9677 19.9355 12.9677C19.9355 11.3177 19.9355 9.66774 19.9355 7.96774C16.3161 7.96774 12.6968 7.96774 8.96774 7.96774C8.96774 8.2871 8.96774 8.60645 8.96774 8.93548C12.2677 8.93548 15.5677 8.93548 18.9677 8.93548C18.9677 10.2661 18.9677 11.5968 18.9677 12.9677C18.6484 12.9677 18.329 12.9677 18 12.9677C18 12.0097 18 11.0516 18 10.0645C16.35 10.0645 14.7 10.0645 13 10.0645C13 11.0226 13 11.9806 13 12.9677C12.6806 12.9677 12.3613 12.9677 12.0323 12.9677C12.0323 12.0097 12.0323 11.0516 12.0323 10.0645C11.7129 10.0645 11.3935 10.0645 11.0645 10.0645C11.0645 11.0226 11.0645 11.9806 11.0645 12.9677C10.6919 12.9677 10.3194 12.9677 9.93548 12.9677C9.93548 12.0097 9.93548 11.0516 9.93548 10.0645C9.61613 10.0645 9.29677 10.0645 8.96774 10.0645C8.96774 11.0226 8.96774 11.9806 8.96774 12.9677C8.64839 12.9677 8.32903 12.9677 8 12.9677C8 9.34839 8 5.72903 8 2Z" fill="black"></path><path fill-rule="evenodd" clip-rule="evenodd" d="M37.0513 4V10.5812H35.0534V8.23077H32.1154V10.5812H30V4H32.1154V6.23291H35.0534V4H37.0513ZM59.1453 4V5.88034H53.6218V8.70086H59.0278V10.5812H51.5064V4H59.1453ZM89.1132 6.82051L86.2927 4H84.0598V10.5812H86.1752V7.64316L89.1132 10.5812H91.1111V4H89.1132V6.82051ZM69.6047 4V6.23291L67.6068 8.23077H69.6047V10.5812H67.3718V8.23077H64.1987V10.5812H62.0833V4H64.1987V6.23291H67.3718V4H69.6047ZM47.9808 4H47.6282H41.047V10.5812H43.0449V9.17094H45.9829V10.5812H47.9808V4ZM80.0641 4V5.88034H75.1282V6.35043H80.0641V8.23077H75.1282V8.70086H80.0641V10.5812H73.0128V4H80.0641ZM46 6H43V7H46V6Z" fill="black"></path></svg>