<svg xmlns="http://www.w3.org/2000/svg" width="27" height="24" viewBox="0 0 27 24" fill="none"><path d="M13.4104 13.8421C13.3936 13.7051 13.3759 13.6048 13.3697 13.5036C13.2879 12.1847 13.1948 10.8664 13.1315 9.54674C13.0776 8.4235 13.1113 7.29942 13.1965 6.17817C13.3036 4.76803 13.483 3.36895 13.9559 2.02799C14.0663 1.71415 14.2233 1.41676 14.3677 1.11625C14.3878 1.07429 14.4621 1.02581 14.5031 1.03233C15.1817 1.13921 15.8699 1.23418 16.4555 1.63392C17.4419 2.30667 17.9462 3.24393 17.9075 4.461C17.8837 5.20576 17.7034 5.91565 17.4486 6.60994C16.948 7.97359 16.2766 9.2536 15.5363 10.4948C14.9031 11.5568 14.2244 12.591 13.5648 13.6365C13.5259 13.6983 13.4771 13.7542 13.4107 13.8426L13.4104 13.8421Z" fill="white"></path><path d="M11.9875 13.8424C11.824 13.601 11.6802 13.3933 11.5411 13.1829C10.5745 11.7188 9.65922 10.2236 8.86704 8.65508C8.37659 7.68397 7.92484 6.69558 7.66349 5.63042C7.5631 5.22136 7.49917 4.80946 7.50001 4.38594C7.50365 2.78424 8.52633 1.5137 10.0793 1.1916C10.3446 1.13664 10.6112 1.08905 10.8771 1.03664C10.9604 1.02021 11.0111 1.04401 11.0577 1.12446C11.3863 1.69302 11.5756 2.31427 11.734 2.94628C11.9999 4.00606 12.1342 5.08623 12.2147 6.17462C12.31 7.46074 12.3313 8.74913 12.2679 10.0361C12.2074 11.2653 12.1025 12.4922 12.0164 13.7203C12.0144 13.7475 12.0041 13.7741 11.9872 13.8426L11.9875 13.8424Z" fill="white"></path><path d="M20.1162 4.23464C20.5878 4.67753 20.978 5.14039 21.2975 5.65609C21.5828 6.11632 21.7993 6.60179 21.8796 7.13431C22.0084 7.99012 21.7625 8.74815 21.1909 9.41104C20.806 9.85735 20.333 10.2156 19.8487 10.5589C18.6823 11.3855 17.4306 12.0831 16.1557 12.7439C15.4517 13.1087 14.7353 13.4517 14.0245 13.8039C14.0012 13.8155 13.9744 13.8207 13.9062 13.8425C15.5786 10.3875 17.6594 7.21368 20.1165 4.23438L20.1162 4.23464Z" fill="white"></path><path d="M11.4796 13.8425C11.3575 13.7857 11.2345 13.7303 11.1129 13.6719C9.49296 12.8925 7.90159 12.066 6.38767 11.1108C5.73702 10.7001 5.11829 10.2505 4.5437 9.74591C3.53553 8.86042 3.22686 7.57063 3.74705 6.36566C4.09402 5.56182 4.62947 4.88045 5.25847 4.25913C5.2643 4.25334 5.27457 4.25123 5.31093 4.23438C7.75669 7.2019 9.84465 10.3817 11.5049 13.8115C11.4965 13.8217 11.4879 13.8323 11.4796 13.8425Z" fill="white"></path><path d="M2.09101 9.83936C5.02201 11.3516 7.93047 12.8615 10.704 14.5895C10.7013 14.5999 10.6986 14.6106 10.6959 14.621C10.6648 14.625 10.6337 14.6324 10.6028 14.6326C8.98965 14.6367 7.37619 14.6476 5.76301 14.6418C3.70474 14.6344 2.02045 13.1174 1.90348 11.1753C1.87666 10.7299 1.92441 10.2908 2.09101 9.83936Z" fill="white"></path><path d="M23.3198 9.83936C23.4366 10.1712 23.4929 10.4851 23.5098 10.8066C23.589 12.3047 22.6641 13.732 21.2195 14.3297C20.6582 14.562 20.0682 14.6469 19.4551 14.6433C17.9574 14.6345 16.4594 14.6408 14.9614 14.6411C14.8788 14.6411 14.7964 14.6411 14.707 14.6213C17.4757 12.8709 20.3877 11.3599 23.3198 9.83936Z" fill="white"></path><path d="M14.7211 15.4438C17.1155 15.5275 19.5096 15.6109 21.9132 15.6949C21.9077 15.7343 21.9109 15.7552 21.9023 15.7692C21.4818 16.4721 20.9776 17.0982 20.2471 17.5055C19.7544 17.78 19.2235 17.932 18.6649 17.7943C18.3359 17.7135 18.0175 17.5661 17.7145 17.4096C16.7864 16.9297 15.9246 16.3422 15.071 15.7429C14.9489 15.6572 14.8283 15.5695 14.707 15.4827C14.7116 15.4698 14.7165 15.4567 14.7211 15.4438Z" fill="white"></path><path d="M4.29883 15.6968C6.43686 15.6122 8.5637 15.5279 10.6903 15.4438C10.6949 15.4556 10.6997 15.4671 10.7043 15.4788C10.6124 15.5554 10.5237 15.6371 10.428 15.7074C9.71145 16.2328 8.99945 16.7665 8.27346 17.275C7.94379 17.5059 7.59402 17.7107 7.20711 17.8007C6.61899 17.9378 6.0904 17.7523 5.60454 17.3869C5.05789 16.9759 4.65165 16.4184 4.32325 15.7837C4.31333 15.7645 4.31078 15.7404 4.29883 15.6968Z" fill="white"></path><path d="M13.1055 18.6536C13.3676 18.6536 13.615 18.6497 13.8619 18.6582C13.8923 18.6593 13.9337 18.7207 13.9478 18.7612C14.205 19.5059 14.4585 20.252 14.7134 20.9975C14.7191 21.0139 14.7286 21.0293 14.7504 21.0742C14.8249 20.8181 14.8918 20.5889 14.9579 20.3593C15.1082 19.8362 15.2605 19.3134 15.4062 18.7891C15.4361 18.6818 15.4884 18.6415 15.606 18.647C15.7971 18.6557 15.9893 18.6549 16.1804 18.647C16.3037 18.6418 16.3658 18.6768 16.4046 18.7976C16.6328 19.5084 16.8707 20.2161 17.1058 20.9247C17.1199 20.9671 17.1368 21.0087 17.1641 21.0821C17.2756 20.7338 17.3777 20.4166 17.4788 20.0994C17.6193 19.6587 17.7616 19.2186 17.897 18.7765C17.926 18.6815 17.9725 18.6431 18.078 18.6467C18.2829 18.6536 18.4884 18.6486 18.7102 18.6486C18.7025 18.6957 18.7022 18.7308 18.691 18.7623C18.3522 19.731 18.0102 20.699 17.6754 21.6691C17.6297 21.8011 17.5691 21.8597 17.4142 21.8477C17.2144 21.8318 17.0118 21.8373 16.8112 21.8463C16.6983 21.8512 16.6552 21.8096 16.6236 21.7104C16.4 21.0082 16.1701 20.3079 15.9419 19.6072C15.9324 19.5785 15.9192 19.5508 15.8971 19.496C15.7465 20.0252 15.6037 20.5259 15.4611 21.0268C15.3947 21.2602 15.3261 21.4927 15.2646 21.7272C15.2424 21.8115 15.2036 21.849 15.1074 21.8466C14.8729 21.8408 14.6381 21.8488 14.4036 21.84C14.3564 21.8384 14.2846 21.7962 14.2694 21.7567C13.8874 20.7636 13.5112 19.7683 13.1348 18.773C13.1224 18.7407 13.1181 18.7053 13.1058 18.6538L13.1055 18.6536Z" fill="white"></path><path d="M3.46591 21.8452C3.223 21.8452 2.99661 21.8496 2.77078 21.8392C2.74544 21.8381 2.70443 21.7527 2.70415 21.7059C2.69902 21.2681 2.70159 20.83 2.7013 20.3922C2.7013 19.8629 2.70329 19.3339 2.69731 18.8047C2.69589 18.6889 2.72551 18.6385 2.85508 18.6475C3.00629 18.6579 3.15921 18.659 3.31014 18.6492C3.44228 18.6404 3.46734 18.6952 3.46534 18.808C3.45936 19.1362 3.46363 19.4648 3.46363 19.7934C3.46363 19.8377 3.46363 19.8821 3.46363 19.933C3.51062 19.9379 3.54223 19.9445 3.57413 19.9445C4.04855 19.9453 4.52298 19.9431 4.99741 19.9472C5.10192 19.9481 5.13752 19.9182 5.13553 19.8145C5.12898 19.4815 5.13296 19.1486 5.13268 18.8154C5.13268 18.7663 5.13268 18.7173 5.13268 18.6524C5.37701 18.6524 5.60369 18.6481 5.82952 18.6587C5.85486 18.6598 5.89558 18.7464 5.89587 18.7932C5.90014 19.5642 5.899 20.3349 5.899 21.106C5.899 21.3113 5.89416 21.5167 5.89985 21.7218C5.90242 21.8176 5.8691 21.8513 5.76886 21.8474C5.60796 21.8411 5.44593 21.84 5.28503 21.8485C5.1697 21.8545 5.12698 21.8222 5.12983 21.7048C5.13724 21.3718 5.1324 21.0389 5.13211 20.7057C5.13211 20.6515 5.13211 20.5972 5.13211 20.5285H3.46506V21.8455L3.46591 21.8452Z" fill="white"></path><path d="M19.6649 19.9469C19.7172 19.9469 19.7723 19.9469 19.8274 19.9469C20.4664 19.9469 21.1058 19.9494 21.7448 19.9447C21.872 19.9439 21.9225 19.9765 21.911 20.092C21.9014 20.1872 21.903 20.2843 21.911 20.3795C21.92 20.4843 21.8708 20.5117 21.7585 20.5109C21.1141 20.5071 20.4698 20.5087 19.8255 20.5084C19.7698 20.5084 19.7144 20.5084 19.6624 20.5084C19.577 20.8453 19.7961 21.1814 20.1582 21.2406C20.399 21.2798 20.6496 21.2776 20.896 21.2831C21.1791 21.2894 21.4629 21.2861 21.7464 21.2812C21.8606 21.2793 21.9203 21.3053 21.9101 21.4195C21.9008 21.524 21.9039 21.6296 21.9101 21.7344C21.9147 21.8172 21.8795 21.8493 21.786 21.8488C21.2707 21.8452 20.7545 21.8564 20.2399 21.8397C19.3632 21.8112 18.8049 21.3533 18.7244 20.5784C18.695 20.2959 18.7148 20.0004 18.7733 19.7212C18.8986 19.1245 19.3483 18.7542 20.0397 18.6903C20.5299 18.645 21.0272 18.6543 21.5214 18.6475C21.9089 18.642 21.9092 18.6475 21.9101 18.9931C21.9101 19.0205 21.9073 19.0483 21.911 19.0754C21.9262 19.1835 21.8761 19.2178 21.7529 19.2159C21.3664 19.2096 20.9795 19.209 20.5933 19.2159C20.4457 19.2186 20.2947 19.2337 20.152 19.2663C19.8243 19.3418 19.6222 19.6567 19.6652 19.9469H19.6649Z" fill="white"></path><path d="M7.47568 18.6511C7.47568 18.8768 7.4751 19.0788 7.47568 19.281C7.47714 19.7496 7.47306 20.2184 7.48356 20.6867C7.4888 20.9195 7.54974 21.1471 7.81446 21.242C8.15149 21.3631 8.50047 21.3739 8.83051 21.2212C9.05762 21.116 9.10718 20.904 9.1101 20.6913C9.11826 20.0651 9.12118 19.4387 9.11564 18.8125C9.11447 18.68 9.15529 18.64 9.29523 18.6473C9.49232 18.6573 9.69028 18.6497 9.88358 18.6497C9.89378 18.6789 9.90194 18.6914 9.90194 18.7041C9.90049 19.3889 9.90369 20.0738 9.89495 20.7586C9.88824 21.2836 9.67512 21.6029 8.99844 21.7657C8.5133 21.8822 8.01534 21.8768 7.52904 21.7495C7.39113 21.7135 7.25731 21.6508 7.13486 21.5802C6.86897 21.4275 6.72262 21.1982 6.71766 20.9076C6.70658 20.2725 6.70541 19.6374 6.70075 19.0023C6.70017 18.9123 6.69579 18.8217 6.70512 18.7322C6.70804 18.7033 6.74885 18.6552 6.77364 18.6543C7.00104 18.6484 7.22845 18.6508 7.47568 18.6508V18.6511Z" fill="white"></path><path d="M13.9057 21.8463C13.6311 21.8463 13.3651 21.8493 13.0997 21.8425C13.0666 21.8417 13.0229 21.792 13.0053 21.7561C12.9144 21.5686 12.8269 21.3798 12.7458 21.1887C12.7134 21.1117 12.6627 21.0862 12.5775 21.0865C12.1161 21.0887 11.6547 21.0892 11.1936 21.0865C11.106 21.0859 11.0602 21.1142 11.0289 21.1909C10.9541 21.3743 10.866 21.5533 10.7903 21.7364C10.7578 21.8151 10.7149 21.8518 10.6172 21.8491C10.39 21.8425 10.1627 21.8469 9.90234 21.8469C9.97771 21.6895 10.0409 21.5536 10.1076 21.4193C10.5431 20.5446 10.9812 19.6709 11.4129 18.7946C11.465 18.6885 11.5272 18.6403 11.6574 18.6471C11.8454 18.657 12.0345 18.6441 12.2225 18.6543C12.2734 18.657 12.3467 18.6956 12.3672 18.7362C12.8802 19.7485 13.3872 20.7633 13.8947 21.7781C13.9022 21.7931 13.9007 21.8121 13.9057 21.8461V21.8463ZM11.3399 20.5023H12.4369C12.2508 20.103 12.0726 19.7211 11.8772 19.302C11.6893 19.7222 11.5174 20.1057 11.3399 20.5023Z" fill="white"></path><path d="M22.7023 18.647C22.7057 18.703 22.7102 18.7433 22.7102 18.7836C22.7102 19.7522 22.7074 20.7208 22.7128 21.6894C22.7136 21.8192 22.6724 21.8556 22.5435 21.8474C22.3833 21.8373 22.2216 21.8395 22.0611 21.8485C21.9489 21.8548 21.9123 21.8189 21.9126 21.71C21.9157 20.8829 21.9137 20.0562 21.9131 19.2291C21.9131 19.0692 21.9095 18.9092 21.916 18.7496C21.9174 18.7148 21.9543 18.6522 21.9762 18.6514C22.2157 18.6443 22.4557 18.647 22.7017 18.647H22.7023Z" fill="white"></path></svg>