<svg xmlns="http://www.w3.org/2000/svg" width="55" height="55" viewBox="0 0 55 55" fill="none"><circle cx="27" cy="27" r="8" fill="#A6C8FC"></circle><path d="M4.58403 27.5002H9.16737C9.16191 25.091 9.6322 22.7044 10.5513 20.4773C11.4703 18.2503 12.82 16.2266 14.523 14.5225C16.1909 12.8491 18.1698 11.5178 20.3484 10.6037C24.8389 8.73813 29.8813 8.70441 34.3963 10.5097C34.4405 11.9935 35.0616 13.4016 36.1276 14.4346C37.1936 15.4677 38.6204 16.0443 40.1049 16.0418C43.2811 16.0418 45.834 13.4889 45.834 10.3127C45.834 7.13641 43.2811 4.5835 40.1049 4.5835C38.5259 4.5835 37.0982 5.216 36.0647 6.24495C30.4936 4.01516 24.0953 4.04954 18.5678 6.38016C15.8433 7.5253 13.368 9.19028 11.2803 11.282C9.18758 13.3686 7.52178 15.8432 6.37612 18.5672C5.1872 21.395 4.57781 24.4326 4.58403 27.5002ZM44.3972 34.6547C43.4782 36.8364 42.1582 38.7981 40.4784 40.4779C38.7986 42.1577 36.837 43.4777 34.653 44.3966C30.1625 46.2622 25.1201 46.2959 20.6051 44.4906C20.5609 43.0068 19.9398 41.5987 18.8738 40.5657C17.8078 39.5326 16.381 38.9561 14.8965 38.9585C11.7203 38.9585 9.16737 41.5114 9.16737 44.6877C9.16737 47.8639 11.7203 50.4168 14.8965 50.4168C16.4755 50.4168 17.9032 49.7843 18.9367 48.7554C21.6581 49.8544 24.5658 50.4185 27.5007 50.4168C32.0073 50.4255 36.4162 49.103 40.1739 46.6152C43.9317 44.1274 46.871 40.5852 48.623 36.4331C49.8135 33.6057 50.4237 30.5679 50.4174 27.5002H45.834C45.8398 29.9573 45.3511 32.3904 44.3972 34.6547Z" fill="#155FF6"></path><path d="M27.4992 17.1006C21.7654 17.1006 17.0996 21.7664 17.0996 27.5002C17.0996 33.2339 21.7654 37.8998 27.4992 37.8998C33.2329 37.8998 37.8988 33.2339 37.8988 27.5002C37.8988 21.7664 33.2329 17.1006 27.4992 17.1006ZM27.4992 33.3164C24.2932 33.3164 21.6829 30.7062 21.6829 27.5002C21.6829 24.2941 24.2932 21.6839 27.4992 21.6839C30.7052 21.6839 33.3154 24.2941 33.3154 27.5002C33.3154 30.7062 30.7052 33.3164 27.4992 33.3164Z" fill="#155FF6"></path></svg>