<svg xmlns="http://www.w3.org/2000/svg" width="39" height="17" viewBox="0 0 39 17" fill="none"><g clip-path="url(#clip0_4595_20185)"><path d="M15.0374 8.45424C15.0374 8.31588 15.0374 8.17825 15.0374 8.04061C15.0389 7.87847 15.0221 7.71849 14.9979 7.55852C14.9613 7.31783 14.8244 7.15569 14.5997 7.06201C14.4826 7.01229 14.3582 6.99572 14.2316 6.98131C14.0296 6.95753 13.8356 6.98779 13.6468 7.05265C13.4506 7.11966 13.3072 7.24433 13.2501 7.44898C13.1893 7.66805 13.1586 7.89144 13.1542 8.11843C13.1513 8.27985 13.152 8.44127 13.1542 8.60269C13.1586 8.81094 13.163 9.01992 13.1944 9.22674C13.2149 9.35717 13.2428 9.48544 13.3079 9.60218C13.3723 9.71676 13.4601 9.80611 13.5846 9.858C13.8729 9.97834 14.1694 10.0036 14.4731 9.92645C14.7652 9.85223 14.9423 9.66703 14.9921 9.37519C15.0191 9.21665 15.0279 9.05451 15.036 8.89309C15.0426 8.74753 15.0374 8.60053 15.0374 8.45424ZM15.0374 8.45424C15.0374 8.31588 15.0374 8.17825 15.0374 8.04061C15.0389 7.87847 15.0221 7.71849 14.9979 7.55852C14.9613 7.31783 14.8244 7.15569 14.5997 7.06201C14.4826 7.01229 14.3582 6.99572 14.2316 6.98131C14.0296 6.95753 13.8356 6.98779 13.6468 7.05265C13.4506 7.11966 13.3072 7.24433 13.2501 7.44898C13.1893 7.66805 13.1586 7.89144 13.1542 8.11843C13.1513 8.27985 13.152 8.44127 13.1542 8.60269C13.1586 8.81094 13.163 9.01992 13.1944 9.22674C13.2149 9.35717 13.2428 9.48544 13.3079 9.60218C13.3723 9.71676 13.4601 9.80611 13.5846 9.858C13.8729 9.97834 14.1694 10.0036 14.4731 9.92645C14.7652 9.85223 14.9423 9.66703 14.9921 9.37519C15.0191 9.21665 15.0279 9.05451 15.036 8.89309C15.0426 8.74753 15.0374 8.60053 15.0374 8.45424ZM7.44955 14.0772C6.96868 13.7745 6.51122 13.4409 6.10134 13.0474C6.05596 13.0035 6.05523 13.0035 5.99521 13.0309C5.81516 13.1094 5.64974 13.2139 5.48213 13.3155C5.41187 13.3587 5.41114 13.3688 5.48067 13.4171C5.76685 13.6153 6.06914 13.7868 6.38533 13.9338C6.68981 14.0743 7.00454 14.1882 7.32952 14.2739C7.35733 14.2811 7.38368 14.2883 7.41149 14.2718C7.46346 14.24 7.51323 14.2069 7.55715 14.1478C7.51762 14.1219 7.48395 14.0988 7.44955 14.0772ZM8.18002 13.7961C7.89896 13.4013 7.6179 13.0064 7.38295 12.5826C7.35879 12.5394 7.34123 12.5336 7.28999 12.5473C6.97526 12.6288 6.66785 12.7296 6.37216 12.8644C6.28286 12.9055 6.2814 12.9105 6.3502 12.9768C6.61369 13.2362 6.89914 13.4704 7.21314 13.6679C7.39466 13.7825 7.58569 13.8833 7.77233 13.9893C7.79649 14.003 7.81991 14.0159 7.85211 14.0008C7.94068 13.9597 8.03143 13.923 8.12073 13.8833C8.14781 13.8711 8.17343 13.856 8.20563 13.8387C8.19319 13.8178 8.18733 13.8062 8.18002 13.7961ZM9.01002 13.1505C9.00856 12.8939 9.00856 12.6381 9.00709 12.3823C9.00636 12.3167 9.00051 12.3095 8.9361 12.3117C8.82704 12.3146 8.71798 12.3167 8.60966 12.3261C8.46693 12.3383 8.32421 12.3542 8.18221 12.3737C8.01167 12.3967 7.8426 12.4248 7.67352 12.4536C7.6479 12.458 7.62522 12.4781 7.5974 12.4926C7.60911 12.5171 7.6135 12.5293 7.62009 12.5408C7.85065 12.9617 8.11707 13.3595 8.42667 13.7291C8.45742 13.7652 8.48816 13.7702 8.52988 13.763C8.58258 13.7529 8.63674 13.7464 8.6909 13.7392C8.77654 13.727 8.8629 13.7162 8.94854 13.7025C9.01075 13.6924 9.01075 13.6902 9.01075 13.6282C9.01075 13.469 9.01002 13.3097 9.01002 13.1505ZM10.5178 14.3208C10.5083 14.3114 10.4973 14.3049 10.4863 14.2984C10.4204 14.2595 10.356 14.2184 10.2887 14.1846C9.92639 14.0015 9.5392 13.9251 9.13372 13.9158C9.01002 13.9266 8.88633 13.9359 8.76336 13.9496C8.51231 13.977 8.27224 14.044 8.04388 14.15C7.9436 14.1961 7.84992 14.2552 7.75257 14.3092C7.73354 14.32 7.70792 14.3323 7.71817 14.3561C7.72476 14.3705 7.75111 14.377 7.7694 14.3863C7.77087 14.3871 7.7738 14.3871 7.77526 14.3871C7.97874 14.4353 8.18441 14.4706 8.39227 14.4901C8.53573 14.5031 8.67846 14.5232 8.82192 14.5261C9.16153 14.5333 9.50188 14.5384 9.84003 14.4901C10.0252 14.4634 10.2096 14.4353 10.3941 14.4072C10.4329 14.4007 10.4717 14.3914 10.5083 14.3791C10.5419 14.3676 10.5441 14.3445 10.5178 14.3208ZM10.6173 12.4688C10.6093 12.4659 10.5998 12.4652 10.5917 12.4637C10.3407 12.4075 10.0874 12.3657 9.83124 12.347C9.66144 12.3347 9.49163 12.3239 9.32182 12.3131C9.25009 12.3081 9.24131 12.3153 9.23838 12.3845C9.23399 12.4854 9.22667 12.587 9.2274 12.6878C9.2296 12.9999 9.23399 13.3119 9.23838 13.6246C9.23911 13.6477 9.24351 13.67 9.24643 13.6931C9.26034 13.6967 9.26839 13.6996 9.27644 13.701C9.37159 13.7147 9.46601 13.7284 9.56116 13.7414C9.62557 13.75 9.68998 13.758 9.75439 13.7659C9.79611 13.7716 9.82319 13.7544 9.84881 13.7219C10.1079 13.3933 10.3487 13.0532 10.5573 12.6914C10.5873 12.6388 10.6181 12.5862 10.6451 12.5322C10.6627 12.4983 10.6532 12.481 10.6173 12.4688ZM11.8587 12.8514C11.5754 12.721 11.2797 12.6259 10.9767 12.5531C10.894 12.5329 10.8867 12.5502 10.8537 12.6086C10.7974 12.7059 10.7432 12.8039 10.6854 12.8997C10.5105 13.1908 10.3194 13.4704 10.1145 13.7421C10.0911 13.7724 10.0655 13.8026 10.0647 13.848C10.0838 13.8574 10.1021 13.8682 10.1218 13.8769C10.2031 13.9122 10.2858 13.946 10.367 13.9835C10.4087 14.003 10.4446 14.0008 10.4841 13.9777C10.6942 13.8509 10.9108 13.7342 11.1143 13.5987C11.3895 13.4157 11.645 13.206 11.8733 12.9667C11.8938 12.9451 11.9121 12.9228 11.9399 12.8918C11.9048 12.8745 11.8821 12.8622 11.8587 12.8514ZM12.7721 13.3112C12.6982 13.2651 12.6257 13.2168 12.5496 13.1757C12.4479 13.1209 12.3432 13.0734 12.24 13.0215C12.1961 12.9992 12.158 12.997 12.1266 13.0417C12.1214 13.0489 12.1141 13.0539 12.1075 13.0597C11.6962 13.451 11.2504 13.7976 10.7579 14.0851C10.741 14.0945 10.7235 14.1039 10.7081 14.1161C10.6825 14.1363 10.681 14.1529 10.7066 14.1738C10.7432 14.204 10.7827 14.2314 10.8208 14.2595C10.853 14.284 10.8859 14.284 10.9255 14.2725C11.1912 14.1961 11.451 14.1031 11.705 13.995C12.0644 13.8423 12.4091 13.6643 12.7246 13.4337C12.7575 13.4099 12.7897 13.384 12.8285 13.3544C12.8051 13.3364 12.7897 13.322 12.7721 13.3112ZM15.0374 8.45424C15.0374 8.31588 15.0374 8.17825 15.0374 8.04061C15.0389 7.87847 15.0221 7.71849 14.9979 7.55852C14.9613 7.31783 14.8244 7.15569 14.5997 7.06201C14.4826 7.01229 14.3582 6.99572 14.2316 6.98131C14.0296 6.95753 13.8356 6.98779 13.6468 7.05265C13.4506 7.11966 13.3072 7.24433 13.2501 7.44898C13.1893 7.66805 13.1586 7.89144 13.1542 8.11843C13.1513 8.27985 13.152 8.44127 13.1542 8.60269C13.1586 8.81094 13.163 9.01992 13.1944 9.22674C13.2149 9.35717 13.2428 9.48544 13.3079 9.60218C13.3723 9.71676 13.4601 9.80611 13.5846 9.858C13.8729 9.97834 14.1694 10.0036 14.4731 9.92645C14.7652 9.85223 14.9423 9.66703 14.9921 9.37519C15.0191 9.21665 15.0279 9.05451 15.036 8.89309C15.0426 8.74753 15.0374 8.60053 15.0374 8.45424ZM15.0374 8.45424C15.0374 8.31588 15.0374 8.17825 15.0374 8.04061C15.0389 7.87847 15.0221 7.71849 14.9979 7.55852C14.9613 7.31783 14.8244 7.15569 14.5997 7.06201C14.4826 7.01229 14.3582 6.99572 14.2316 6.98131C14.0296 6.95753 13.8356 6.98779 13.6468 7.05265C13.4506 7.11966 13.3072 7.24433 13.2501 7.44898C13.1893 7.66805 13.1586 7.89144 13.1542 8.11843C13.1513 8.27985 13.152 8.44127 13.1542 8.60269C13.1586 8.81094 13.163 9.01992 13.1944 9.22674C13.2149 9.35717 13.2428 9.48544 13.3079 9.60218C13.3723 9.71676 13.4601 9.80611 13.5846 9.858C13.8729 9.97834 14.1694 10.0036 14.4731 9.92645C14.7652 9.85223 14.9423 9.66703 14.9921 9.37519C15.0191 9.21665 15.0279 9.05451 15.036 8.89309C15.0426 8.74753 15.0374 8.60053 15.0374 8.45424ZM12.7721 13.3112C12.6982 13.2651 12.6257 13.2168 12.5496 13.1757C12.4479 13.1209 12.3432 13.0734 12.24 13.0215C12.1961 12.9992 12.158 12.997 12.1266 13.0417C12.1214 13.0489 12.1141 13.0539 12.1075 13.0597C11.6962 13.451 11.2504 13.7976 10.7579 14.0851C10.741 14.0945 10.7235 14.1039 10.7081 14.1161C10.6825 14.1363 10.681 14.1529 10.7066 14.1738C10.7432 14.204 10.7827 14.2314 10.8208 14.2595C10.853 14.284 10.8859 14.284 10.9255 14.2725C11.1912 14.1961 11.451 14.1031 11.705 13.995C12.0644 13.8423 12.4091 13.6643 12.7246 13.4337C12.7575 13.4099 12.7897 13.384 12.8285 13.3544C12.8051 13.3364 12.7897 13.322 12.7721 13.3112ZM10.0647 13.848C10.0838 13.8574 10.1021 13.8682 10.1218 13.8769C10.2031 13.9122 10.2858 13.946 10.367 13.9835C10.4087 14.003 10.4446 14.0008 10.4841 13.9777C10.6942 13.8509 10.9108 13.7342 11.1143 13.5987C11.3895 13.4157 11.645 13.206 11.8733 12.9667C11.8938 12.9451 11.9121 12.9228 11.9399 12.8918C11.9048 12.8745 11.8821 12.8622 11.8587 12.8514C11.5754 12.721 11.2797 12.6259 10.9767 12.5531C10.894 12.5329 10.8867 12.5502 10.8537 12.6086C10.7974 12.7059 10.7432 12.8039 10.6854 12.8997C10.5105 13.1908 10.3194 13.4704 10.1145 13.7421C10.0911 13.7724 10.0655 13.8026 10.0647 13.848ZM9.24643 13.6931C9.26034 13.6967 9.26839 13.6996 9.27644 13.701C9.37159 13.7147 9.46601 13.7284 9.56116 13.7414C9.62557 13.75 9.68998 13.758 9.75439 13.7659C9.79611 13.7716 9.82319 13.7544 9.84881 13.7219C10.1079 13.3933 10.3487 13.0532 10.5573 12.6914C10.5873 12.6388 10.6181 12.5862 10.6451 12.5322C10.6627 12.4983 10.6532 12.481 10.6173 12.4688C10.6093 12.4659 10.5998 12.4652 10.5917 12.4637C10.3407 12.4075 10.0874 12.3657 9.83124 12.347C9.66144 12.3347 9.49163 12.3239 9.32182 12.3131C9.25009 12.3081 9.24131 12.3153 9.23838 12.3845C9.23399 12.4854 9.22667 12.587 9.2274 12.6878C9.2296 12.9999 9.23399 13.3119 9.23838 13.6246C9.23911 13.6477 9.24351 13.67 9.24643 13.6931ZM10.4863 14.2984C10.4204 14.2595 10.356 14.2184 10.2887 14.1846C9.92639 14.0015 9.5392 13.9251 9.13372 13.9158C9.01002 13.9266 8.88633 13.9359 8.76336 13.9496C8.51231 13.977 8.27224 14.044 8.04388 14.15C7.9436 14.1961 7.84992 14.2552 7.75257 14.3092C7.73354 14.32 7.70792 14.3323 7.71817 14.3561C7.72476 14.3705 7.75111 14.377 7.7694 14.3863C7.77087 14.3871 7.7738 14.3871 7.77526 14.3871C7.97874 14.4353 8.18441 14.4706 8.39227 14.4901C8.53573 14.5031 8.67846 14.5232 8.82192 14.5261C9.16153 14.5333 9.50188 14.5384 9.84003 14.4901C10.0252 14.4634 10.2096 14.4353 10.3941 14.4072C10.4329 14.4007 10.4717 14.3914 10.5083 14.3791C10.5419 14.3676 10.5441 14.3445 10.5178 14.3208C10.5083 14.3114 10.4973 14.3049 10.4863 14.2984ZM8.42667 13.7291C8.45742 13.7652 8.48816 13.7702 8.52988 13.763C8.58258 13.7529 8.63674 13.7464 8.6909 13.7392C8.77654 13.727 8.8629 13.7162 8.94854 13.7025C9.01075 13.6924 9.01075 13.6902 9.01075 13.6282C9.01075 13.469 9.01002 13.3097 9.01002 13.1505C9.00856 12.8939 9.00856 12.6381 9.00709 12.3823C9.00636 12.3167 9.00051 12.3095 8.9361 12.3117C8.82704 12.3146 8.71798 12.3167 8.60966 12.3261C8.46693 12.3383 8.32421 12.3542 8.18221 12.3737C8.01167 12.3967 7.8426 12.4248 7.67352 12.4536C7.6479 12.458 7.62522 12.4781 7.5974 12.4926C7.60911 12.5171 7.6135 12.5293 7.62009 12.5408C7.85065 12.9617 8.11707 13.3595 8.42667 13.7291ZM7.21314 13.6679C7.39466 13.7825 7.58569 13.8833 7.77233 13.9893C7.79649 14.003 7.81991 14.0159 7.85211 14.0008C7.94068 13.9597 8.03143 13.923 8.12073 13.8833C8.14781 13.8711 8.17343 13.856 8.20563 13.8387C8.19319 13.8178 8.18733 13.8062 8.18002 13.7961C7.89896 13.4013 7.6179 13.0064 7.38295 12.5826C7.35879 12.5394 7.34123 12.5336 7.28999 12.5473C6.97526 12.6288 6.66785 12.7296 6.37216 12.8644C6.28286 12.9055 6.2814 12.9105 6.3502 12.9768C6.61369 13.2362 6.89914 13.4704 7.21314 13.6679ZM6.10134 13.0474C6.05596 13.0035 6.05523 13.0035 5.99521 13.0309C5.81516 13.1094 5.64974 13.2139 5.48213 13.3155C5.41187 13.3587 5.41114 13.3688 5.48067 13.4171C5.76685 13.6153 6.06914 13.7868 6.38533 13.9338C6.68981 14.0743 7.00454 14.1882 7.32952 14.2739C7.35733 14.2811 7.38368 14.2883 7.41149 14.2718C7.46346 14.24 7.51323 14.2069 7.55715 14.1478C7.51762 14.1219 7.48395 14.0988 7.44955 14.0772C6.96868 13.7745 6.51122 13.4409 6.10134 13.0474ZM0 0V17H18.6407V0H0ZM3.65817 4.96359C3.91142 4.59535 4.20053 4.25594 4.52697 3.94824C5.31891 3.1988 6.247 2.68284 7.3039 2.39316C7.5791 2.31821 7.85724 2.25768 8.14122 2.22381C8.33592 2.20075 8.53061 2.17914 8.7253 2.16328C8.83875 2.15391 8.9522 2.15968 9.06638 2.1568C9.09419 2.15608 9.12127 2.14743 9.14909 2.14311H9.20105C9.23545 2.14815 9.26985 2.15464 9.30426 2.15752C9.39355 2.16328 9.48285 2.16689 9.57214 2.17337C9.67095 2.17986 9.77049 2.18634 9.8693 2.19931C10.0289 2.21877 10.1892 2.23823 10.3473 2.26777C10.8018 2.3528 11.2439 2.48468 11.6706 2.66339C12.5745 3.04243 13.3555 3.59154 14.0127 4.31215C14.1957 4.51248 14.3641 4.72362 14.5192 4.94557C14.5324 4.96503 14.5441 4.98449 14.561 5.01043C14.5368 5.01619 14.5214 5.02196 14.5046 5.0234C14.345 5.03565 14.3319 5.02916 14.2382 4.90378C13.9022 4.45339 13.5099 4.05706 13.0634 3.7126C13.0166 3.67657 12.9763 3.67009 12.9273 3.69747C12.9141 3.7054 12.8995 3.71044 12.8863 3.71837C12.718 3.81349 12.5496 3.90861 12.3813 4.00445C12.3125 4.04336 12.3095 4.06642 12.3622 4.12263C12.5672 4.33882 12.7436 4.57662 12.9185 4.81658C12.9624 4.87711 12.9998 4.94269 13.0407 5.00827C13.0056 5.03781 12.9683 5.03277 12.9324 5.03205C12.7963 5.02988 12.8321 5.05222 12.7524 4.94269C12.5818 4.70777 12.4047 4.47861 12.2093 4.26315C12.1902 4.24225 12.1712 4.22136 12.1522 4.20118C12.1163 4.16299 12.0731 4.15362 12.0234 4.17379C11.7123 4.29702 11.4005 4.42024 11.0763 4.50888C10.9343 4.54779 10.9577 4.54275 11.006 4.65589C11.0455 4.74884 11.0887 4.84036 11.1297 4.93332C11.1414 4.95854 11.1509 4.98449 11.1655 5.01835C11.1421 5.02412 11.1246 5.03132 11.107 5.03277C10.9591 5.04213 10.9599 5.04141 10.8918 4.91387C10.8457 4.82811 10.8003 4.74236 10.7535 4.65733C10.7264 4.6076 10.7074 4.60112 10.6525 4.61049C10.4541 4.64796 10.2558 4.68831 10.0559 4.7193C9.91615 4.7402 9.77488 4.74957 9.63362 4.76182C9.50993 4.77262 9.38623 4.77983 9.2618 4.78776C9.23106 4.78992 9.2113 4.80145 9.20837 4.83244C9.20471 4.86847 9.20252 4.90522 9.20032 4.94125C9.20032 4.95854 9.19886 4.97584 9.19886 4.99313C9.19886 5.02412 9.18056 5.03349 9.15201 5.03277C9.11249 5.03205 9.07297 5.03349 9.03344 5.03205C8.98953 5.03205 8.9844 5.027 8.98294 4.98449C8.98148 4.9499 8.9844 4.91531 8.98294 4.88144C8.97855 4.80505 8.95439 4.78055 8.87974 4.77695C8.7597 4.77118 8.63967 4.76974 8.52036 4.76037C8.37032 4.74812 8.221 4.73227 8.07242 4.71209C7.90188 4.68903 7.73281 4.65949 7.563 4.63211C7.53299 4.62706 7.50225 4.62274 7.47371 4.61337C7.43931 4.60184 7.41954 4.61409 7.4049 4.64291C7.37343 4.70417 7.34196 4.76542 7.31122 4.82739C7.28267 4.8836 7.25779 4.94053 7.22778 4.99602C7.21973 5.01115 7.20216 5.02916 7.18679 5.03133C7.12677 5.03781 7.06602 5.05655 6.99942 5.02556C7.00454 5.00971 7.00893 4.99241 7.01625 4.97584C7.06456 4.86486 7.1136 4.75461 7.16264 4.64436C7.2007 4.55932 7.19265 4.54707 7.10115 4.51753C6.86181 4.4397 6.62174 4.36115 6.3824 4.28117C6.29969 4.25306 6.21772 4.22424 6.13794 4.18965C6.09183 4.17019 6.06182 4.18028 6.02961 4.21415C5.85249 4.40007 5.69073 4.59752 5.53922 4.80289C5.49531 4.8627 5.45066 4.92107 5.41114 4.98304C5.38771 5.01835 5.35771 5.04069 5.31672 5.04286C5.26329 5.04574 5.20912 5.05583 5.14764 5.03205C5.34599 4.68543 5.60363 4.3871 5.85615 4.07579C5.83199 4.05922 5.81443 4.0448 5.79467 4.034C5.60144 3.92446 5.40821 3.81637 5.21571 3.7054C5.18131 3.68522 5.15935 3.69891 5.133 3.71548C4.99174 3.80988 4.86365 3.92086 4.73703 4.03328C4.4223 4.31287 4.15076 4.62994 3.90044 4.96503C3.86018 5.01907 3.81773 5.04213 3.75259 5.03637C3.7116 5.03277 3.66988 5.03637 3.6267 5.03637C3.62157 5.00106 3.645 4.98376 3.65817 4.96431V4.96359ZM9.07223 9.71027C9.02832 9.66055 8.97123 9.62884 8.90755 9.60938C8.69749 9.54453 8.48816 9.47823 8.27736 9.41482C7.80454 9.27142 7.33171 9.13018 6.85889 8.98749C6.56392 8.89886 6.29164 8.76555 6.04864 8.57674C5.85981 8.42974 5.70171 8.25679 5.58973 8.04421C5.50629 7.88496 5.47042 7.71273 5.447 7.53762C5.41553 7.30198 5.43236 7.0685 5.4975 6.84007C5.60217 6.47039 5.81516 6.17926 6.14965 5.97605C6.40729 5.81968 6.68615 5.71951 6.98112 5.66186C7.21753 5.61502 7.45614 5.59268 7.69621 5.59917C8.15513 5.61214 8.60161 5.69213 9.02685 5.86796C9.14689 5.91768 9.25961 5.98614 9.37525 6.04595C9.39648 6.05676 9.4177 6.06613 9.44405 6.07838C9.47553 6.02505 9.47406 5.97533 9.47626 5.92633C9.47845 5.88525 9.47626 5.84418 9.47699 5.80382C9.47845 5.75987 9.48358 5.75482 9.52603 5.75194C9.60215 5.74762 9.67827 5.74185 9.75439 5.74113C10.0296 5.73969 10.3048 5.74041 10.58 5.74041H10.6547C10.6583 5.75987 10.6642 5.77356 10.6642 5.78797C10.6693 6.37815 10.6744 6.96761 10.6795 7.5578C10.6795 7.57869 10.6766 7.59959 10.6752 7.6277C10.6115 7.63274 10.5507 7.64139 10.4907 7.64211C10.1804 7.64355 9.87077 7.64283 9.56043 7.64355C9.53115 7.64355 9.507 7.64139 9.48724 7.61328C9.25888 7.28396 8.9339 7.09012 8.55623 6.96978C8.37105 6.91069 8.18221 6.86817 7.98971 6.84655C7.8404 6.82998 7.68889 6.82782 7.53885 6.83214C7.41662 6.83502 7.3039 6.87393 7.2168 6.96833C7.16337 7.02526 7.15751 7.08507 7.18899 7.15209C7.21387 7.20398 7.2512 7.24289 7.30317 7.27243C7.42247 7.33873 7.55495 7.36683 7.6845 7.40359C8.26638 7.57005 8.84753 7.73651 9.43015 7.89937C9.88321 8.02548 10.2492 8.27625 10.5354 8.64232C10.6898 8.83905 10.8054 9.05739 10.8428 9.30456C10.9306 9.87745 10.7798 10.3797 10.3546 10.7905C10.1518 10.9858 9.90663 11.1097 9.64021 11.1962C9.42868 11.2646 9.21203 11.3158 8.98953 11.3266C8.79337 11.336 8.59648 11.3482 8.40106 11.336C7.98093 11.3086 7.57398 11.2156 7.18533 11.0535C7.0792 11.0095 6.98039 10.9483 6.87792 10.8964C6.83547 10.8748 6.79228 10.856 6.73958 10.8308C6.73373 10.887 6.72714 10.9324 6.72494 10.9786C6.72128 11.0427 6.72202 11.1075 6.71909 11.1724C6.71763 11.2149 6.7125 11.22 6.66932 11.2221C6.63711 11.2236 6.60418 11.2221 6.57124 11.2221C6.24114 11.2228 5.91177 11.2236 5.58167 11.2236C5.56411 11.2236 5.54727 11.2228 5.52971 11.2236C5.50555 11.2236 5.49311 11.2106 5.49018 11.189C5.48726 11.1717 5.48506 11.1544 5.48506 11.1371C5.48067 10.7883 5.47408 10.4395 5.47335 10.0908C5.47335 9.82845 5.48067 9.56543 5.48506 9.30312C5.48726 9.2008 5.48799 9.2008 5.59339 9.20008C5.90592 9.19647 6.21845 9.19503 6.53025 9.18999C6.58002 9.18855 6.61516 9.20152 6.63711 9.24547C6.63931 9.25124 6.64443 9.25628 6.64736 9.26205C6.77252 9.49553 6.97819 9.64758 7.20143 9.77873C7.45028 9.92429 7.72037 10.0072 8.00728 10.0461C8.31908 10.0886 8.6243 10.0612 8.92731 9.98843C8.9705 9.97834 9.01295 9.95528 9.04954 9.92934C9.12859 9.87241 9.13664 9.78377 9.07223 9.71027ZM1.49533 11.2214C1.49533 11.2214 1.48801 11.2171 1.47776 11.212C1.47703 11.1926 1.47483 11.1695 1.4741 11.1472C1.46898 11.0304 1.46532 10.9144 1.45946 10.7984C1.45873 10.7775 1.44922 10.7573 1.44336 10.7371V10.4136C1.45214 10.3653 1.46459 10.317 1.46751 10.2687C1.47264 10.1765 1.47191 10.0835 1.4741 9.99059V9.92141C1.49899 9.91853 1.51728 9.91492 1.53558 9.91492C1.76468 9.90988 1.9945 9.90556 2.22359 9.90123C2.23677 9.90123 2.24921 9.90051 2.26239 9.89979C2.28581 9.89907 2.29825 9.88682 2.29971 9.86304C2.30264 9.81836 2.3085 9.77296 2.3085 9.72829C2.3085 8.86067 2.3085 7.99233 2.3085 7.12471V7.11174C2.3085 7.03247 2.30264 7.02598 2.22433 7.02382C2.0106 7.01878 1.79688 7.01445 1.58316 7.01013C1.56998 7.00941 1.55681 7.01013 1.54363 7.00941C1.48874 7.00797 1.48508 7.00653 1.48508 6.9496C1.48508 6.54029 1.48508 6.1317 1.48508 5.72239C1.48508 5.70582 1.48947 5.68925 1.49167 5.66907C1.51143 5.66691 1.52826 5.6633 1.5451 5.66258C1.86788 5.65898 2.19066 5.65177 2.51417 5.65249C3.35442 5.65394 4.19541 5.65898 5.03566 5.66258C5.05688 5.6633 5.07811 5.66474 5.10739 5.66619C5.11178 5.71158 5.11983 5.75338 5.11983 5.7959C5.12129 6.17926 5.12129 6.56263 5.12129 6.946C5.12129 6.96473 5.11837 6.98347 5.11617 7.00725C5.09128 7.00869 5.07006 7.01157 5.04883 7.01157C4.81974 7.0159 4.59065 7.0195 4.36155 7.0231C4.29056 7.02382 4.2825 7.03103 4.2825 7.10093C4.2825 7.43025 4.2825 7.76029 4.28031 8.08961C4.27811 8.65601 4.27519 9.22241 4.27226 9.7881C4.27153 9.81836 4.27226 9.84791 4.27226 9.8861C4.32422 9.89187 4.36814 9.89979 4.41279 9.90123C4.62285 9.90628 4.83218 9.90988 5.04151 9.91348C5.06493 9.91348 5.08836 9.91637 5.11617 9.91781V11.2106C5.11617 11.2106 5.11178 11.2149 5.10958 11.2164C5.10812 11.2178 5.10592 11.2192 5.10446 11.22C5.09568 11.2214 5.08689 11.2236 5.07884 11.2236C3.89312 11.2236 2.7074 11.2236 1.52168 11.2236C1.51289 11.2236 1.50411 11.2221 1.49533 11.2207V11.2214ZM14.5566 11.9153C14.2879 12.3045 13.9813 12.6626 13.6343 12.9862C12.8951 13.6751 12.0387 14.1665 11.066 14.4591C10.7659 14.5499 10.4607 14.6205 10.1496 14.663C10.0047 14.6825 9.86052 14.6998 9.71487 14.7128C9.56555 14.7265 9.41478 14.7329 9.26473 14.743C9.24351 14.7445 9.22301 14.7517 9.20179 14.756H9.04442C9.02759 14.7517 9.01075 14.7445 8.99392 14.743C8.89218 14.7366 8.78898 14.7329 8.68724 14.725C8.55696 14.7149 8.42741 14.7012 8.29712 14.689C8.07974 14.6688 7.86602 14.6292 7.65376 14.5809C7.23876 14.4872 6.83547 14.3553 6.44535 14.1874C6.35971 14.15 6.27115 14.1168 6.18917 14.0721C5.97252 13.954 5.75587 13.8343 5.54435 13.7082C5.33282 13.5814 5.13593 13.4351 4.9449 13.2809C4.46329 12.8925 4.04097 12.4508 3.69038 11.9427C3.67135 11.9153 3.65451 11.8865 3.62963 11.8469C3.66915 11.844 3.69623 11.8418 3.72404 11.8404C3.73429 11.8397 3.74527 11.8397 3.75625 11.8404C3.87702 11.8411 3.85726 11.8303 3.92679 11.9269C4.26567 12.3967 4.66603 12.8089 5.12568 13.1656C5.17253 13.2024 5.20912 13.206 5.25889 13.1771C5.45505 13.0647 5.65267 12.9545 5.84956 12.8435C5.85688 12.8392 5.86273 12.8327 5.87591 12.8219C5.86273 12.8031 5.85029 12.7837 5.83639 12.7664C5.69512 12.5884 5.55093 12.4126 5.41333 12.2317C5.33502 12.1279 5.26768 12.017 5.19595 11.9089C5.18424 11.8916 5.17546 11.8721 5.16082 11.8462C5.21644 11.8397 5.26475 11.8303 5.31379 11.8289C5.35624 11.8274 5.3943 11.8433 5.41845 11.8829C5.52532 12.0616 5.65487 12.2238 5.78808 12.3837C5.86859 12.4803 5.95203 12.574 6.0362 12.6669C6.09256 12.7296 6.10134 12.7304 6.17746 12.7001C6.49585 12.5718 6.82083 12.4594 7.15166 12.3636C7.1663 12.3592 7.18094 12.3556 7.19484 12.3499C7.23876 12.3311 7.24461 12.3189 7.22631 12.2757C7.17654 12.1582 7.12531 12.0422 7.07481 11.9254C7.06456 11.9024 7.05504 11.8779 7.04333 11.8476C7.11287 11.8289 7.17728 11.8375 7.24095 11.844C7.25559 11.8462 7.27023 11.8736 7.27975 11.8923C7.3361 11.9968 7.39027 12.1027 7.44589 12.2072C7.48469 12.2793 7.48249 12.2656 7.54617 12.2548C7.72622 12.2231 7.90627 12.1913 8.08706 12.1661C8.22247 12.1467 8.35934 12.1359 8.49621 12.1243C8.63088 12.1128 8.76556 12.1056 8.90023 12.0955C8.99831 12.0876 9.01075 12.0724 9.01075 11.9766C9.01148 11.9341 9.01075 11.8916 9.01075 11.8411C9.07443 11.8411 9.13079 11.8397 9.18642 11.8411C9.21423 11.8411 9.22228 11.8635 9.22301 11.8865C9.22374 11.9276 9.22301 11.9687 9.22448 12.009C9.2274 12.0732 9.23838 12.0811 9.30279 12.0861C9.44844 12.0969 9.59337 12.1092 9.73902 12.1229C9.87077 12.1351 10.004 12.1459 10.135 12.1654C10.3238 12.1928 10.5127 12.2274 10.7015 12.2591C10.7096 12.2605 10.7183 12.2641 10.7264 12.2656C10.7747 12.2728 10.7806 12.2706 10.804 12.2267C10.8486 12.1409 10.8933 12.0544 10.9379 11.968C10.9526 11.9391 10.9694 11.911 10.9818 11.8815C10.9957 11.8483 11.0184 11.8375 11.0536 11.8397C11.1011 11.8418 11.148 11.8404 11.2014 11.8404C11.1985 11.8642 11.1992 11.8793 11.1941 11.8923C11.1787 11.9348 11.1626 11.9773 11.1436 12.0184C11.1136 12.0847 11.0806 12.1503 11.0492 12.2173C11.0016 12.3189 11.0074 12.3283 11.115 12.36C11.2197 12.391 11.3251 12.4198 11.4268 12.4558C11.6384 12.5308 11.8484 12.6093 12.0585 12.6878C12.1551 12.7239 12.1368 12.7217 12.2027 12.6554C12.3908 12.4652 12.5496 12.2519 12.7033 12.0342C12.7399 11.9831 12.7765 11.9319 12.8109 11.8793C12.8292 11.8512 12.8512 11.8382 12.8856 11.8397C12.9441 11.8418 13.0027 11.8404 13.0737 11.8404C12.8702 12.1942 12.6162 12.4962 12.3579 12.806C12.3842 12.824 12.404 12.8392 12.4259 12.8514C12.5562 12.9256 12.6872 12.9984 12.8182 13.0719C12.8768 13.1051 12.9353 13.139 12.9932 13.1735C13.0481 13.2067 13.0576 13.2074 13.1088 13.1678C13.3774 12.9595 13.6234 12.7275 13.8517 12.4774C14.0201 12.2929 14.1782 12.1005 14.3223 11.8981C14.3524 11.8563 14.3875 11.8368 14.4373 11.8404C14.4863 11.8447 14.5368 11.8325 14.5939 11.8534C14.58 11.8764 14.5697 11.8966 14.5566 11.9153ZM17.1688 8.7079C17.163 8.73528 17.1534 8.76122 17.152 8.78861C17.1205 9.28151 16.9895 9.74558 16.7406 10.1758C16.6096 10.4028 16.4244 10.5808 16.2173 10.7386C16.0614 10.8568 15.8901 10.9504 15.7123 11.0348C15.4524 11.1587 15.175 11.2207 14.8954 11.2754C14.7073 11.3122 14.5163 11.3295 14.3253 11.3439C14.1372 11.3583 13.9498 11.3533 13.7632 11.3374C13.2179 11.2913 12.7048 11.1407 12.2283 10.869C11.6406 10.5339 11.2922 10.0324 11.1326 9.39176C11.058 9.0927 11.0323 8.78933 11.0375 8.48234C11.0448 8.08529 11.0938 7.69255 11.2124 7.31207C11.3617 6.82998 11.6406 6.43292 12.0658 6.14684C12.3176 5.97677 12.595 5.85715 12.8863 5.76707C13.1052 5.69933 13.3291 5.65466 13.556 5.62583C13.8005 5.59485 14.0479 5.58692 14.2938 5.60061C14.7535 5.62655 15.1999 5.71591 15.6266 5.89246C15.9414 6.02289 16.2283 6.1944 16.4706 6.43508C16.7172 6.67937 16.8936 6.96401 16.9931 7.29549C17.0685 7.54987 17.1205 7.80857 17.149 8.07231C17.152 8.10258 17.149 8.13285 17.152 8.16311C17.1542 8.18545 17.163 8.20779 17.1688 8.23013V8.7079ZM15.0374 8.04061C15.0389 7.87847 15.0221 7.71849 14.9979 7.55852C14.9613 7.31783 14.8244 7.15569 14.5997 7.06201C14.4826 7.01229 14.3582 6.99572 14.2316 6.98131C14.0296 6.95753 13.8356 6.98779 13.6468 7.05265C13.4506 7.11966 13.3072 7.24433 13.2501 7.44898C13.1893 7.66805 13.1586 7.89144 13.1542 8.11843C13.1513 8.27985 13.152 8.44127 13.1542 8.60269C13.1586 8.81094 13.163 9.01992 13.1944 9.22674C13.2149 9.35717 13.2428 9.48544 13.3079 9.60218C13.3723 9.71676 13.4601 9.80611 13.5846 9.858C13.8729 9.97834 14.1694 10.0036 14.4731 9.92645C14.7652 9.85223 14.9423 9.66703 14.9921 9.37519C15.0191 9.21665 15.0279 9.05451 15.036 8.89309C15.0426 8.74753 15.0374 8.60053 15.0374 8.45424C15.0374 8.31588 15.0374 8.17825 15.0374 8.04061ZM12.5496 13.1757C12.4479 13.1209 12.3432 13.0734 12.24 13.0215C12.1961 12.9992 12.158 12.997 12.1266 13.0417C12.1214 13.0489 12.1141 13.0539 12.1075 13.0597C11.6962 13.451 11.2504 13.7976 10.7579 14.0851C10.741 14.0945 10.7235 14.1039 10.7081 14.1161C10.6825 14.1363 10.681 14.1529 10.7066 14.1738C10.7432 14.204 10.7827 14.2314 10.8208 14.2595C10.853 14.284 10.8859 14.284 10.9255 14.2725C11.1912 14.1961 11.451 14.1031 11.705 13.995C12.0644 13.8423 12.4091 13.6643 12.7246 13.4337C12.7575 13.4099 12.7897 13.384 12.8285 13.3544C12.8051 13.3364 12.7897 13.322 12.7721 13.3112C12.6982 13.2651 12.6257 13.2168 12.5496 13.1757ZM11.6376 3.43372C11.7913 3.56127 11.9377 3.69747 12.0863 3.83078C12.1324 3.87114 12.1493 3.87762 12.1961 3.8524C12.3718 3.75728 12.5474 3.66072 12.7224 3.56344C12.7407 3.55335 12.7524 3.53173 12.7714 3.51227C12.7458 3.49354 12.7297 3.47912 12.7121 3.46759C12.5591 3.37175 12.4084 3.27159 12.2517 3.18223C11.814 2.93218 11.35 2.74266 10.8596 2.61511C10.8413 2.61006 10.8171 2.59997 10.8032 2.60718C10.7396 2.63817 10.6759 2.67204 10.6393 2.74626C10.6686 2.76499 10.6949 2.78301 10.7227 2.79958C11.044 2.98839 11.3515 3.19664 11.6376 3.43372ZM10.9665 3.20889C10.7923 3.09864 10.61 3.00136 10.4307 2.89831C10.4065 2.8839 10.3831 2.87381 10.3524 2.88822C10.2536 2.93434 10.154 2.97686 10.0552 3.02225C10.034 3.03162 10.0157 3.04531 9.99153 3.05901C10.0098 3.08495 10.023 3.1044 10.0369 3.12314C10.1108 3.22475 10.1892 3.32275 10.258 3.42724C10.4475 3.71116 10.6327 3.99724 10.8201 4.28261C10.853 4.33377 10.8523 4.33377 10.913 4.3208C11.2358 4.2509 11.5418 4.132 11.8448 4.00589C11.8631 3.99869 11.8777 3.98211 11.8938 3.96986C11.896 3.96121 11.8982 3.95329 11.9011 3.94464C11.8792 3.92951 11.8558 3.91726 11.8367 3.89924C11.5688 3.64198 11.2805 3.4085 10.9665 3.20889ZM10.0647 13.848C10.0838 13.8574 10.1021 13.8682 10.1218 13.8769C10.2031 13.9122 10.2858 13.946 10.367 13.9835C10.4087 14.003 10.4446 14.0008 10.4841 13.9777C10.6942 13.8509 10.9108 13.7342 11.1143 13.5987C11.3895 13.4157 11.645 13.206 11.8733 12.9667C11.8938 12.9451 11.9121 12.9228 11.9399 12.8918C11.9048 12.8745 11.8821 12.8622 11.8587 12.8514C11.5754 12.721 11.2797 12.6259 10.9767 12.5531C10.894 12.5329 10.8867 12.5502 10.8537 12.6086C10.7974 12.7059 10.7432 12.8039 10.6854 12.8997C10.5105 13.1908 10.3194 13.4704 10.1145 13.7421C10.0911 13.7724 10.0655 13.8026 10.0647 13.848ZM9.24643 13.6931C9.26034 13.6967 9.26839 13.6996 9.27644 13.701C9.37159 13.7147 9.46601 13.7284 9.56116 13.7414C9.62557 13.75 9.68998 13.758 9.75439 13.7659C9.79611 13.7716 9.82319 13.7544 9.84881 13.7219C10.1079 13.3933 10.3487 13.0532 10.5573 12.6914C10.5873 12.6388 10.6181 12.5862 10.6451 12.5322C10.6627 12.4983 10.6532 12.481 10.6173 12.4688C10.6093 12.4659 10.5998 12.4652 10.5917 12.4637C10.3407 12.4075 10.0874 12.3657 9.83124 12.347C9.66144 12.3347 9.49163 12.3239 9.32182 12.3131C9.25009 12.3081 9.24131 12.3153 9.23838 12.3845C9.23399 12.4854 9.22667 12.587 9.2274 12.6878C9.2296 12.9999 9.23399 13.3119 9.23838 13.6246C9.23911 13.6477 9.24351 13.67 9.24643 13.6931ZM9.7661 3.15629C9.74853 3.13467 9.73024 3.12458 9.69876 3.12963C9.58458 3.14692 9.4704 3.15989 9.35622 3.17574C9.30938 3.18223 9.26254 3.19232 9.20837 3.20169C9.20837 3.26438 9.20984 3.32203 9.20764 3.37968C9.19593 3.75368 9.19154 4.1284 9.2091 4.50312C9.21203 4.55644 9.21569 4.56149 9.27132 4.56076C9.3328 4.56004 9.39355 4.55572 9.4543 4.55212C9.59556 4.54275 9.73756 4.53915 9.87809 4.52185C10.0611 4.49879 10.2433 4.46492 10.4256 4.43394C10.4827 4.42385 10.5376 4.40727 10.6012 4.39214C10.5829 4.35323 10.5705 4.32368 10.5551 4.29558C10.3385 3.88483 10.0552 3.51804 9.7661 3.15629ZM10.4863 14.2984C10.4204 14.2595 10.356 14.2184 10.2887 14.1846C9.92639 14.0015 9.5392 13.9251 9.13372 13.9158C9.01002 13.9266 8.88633 13.9359 8.76336 13.9496C8.51231 13.977 8.27224 14.044 8.04388 14.15C7.9436 14.1961 7.84992 14.2552 7.75257 14.3092C7.73354 14.32 7.70792 14.3323 7.71817 14.3561C7.72476 14.3705 7.75111 14.377 7.7694 14.3863C7.77087 14.3871 7.7738 14.3871 7.77526 14.3871C7.97874 14.4353 8.18441 14.4706 8.39227 14.4901C8.53573 14.5031 8.67846 14.5232 8.82192 14.5261C9.16153 14.5333 9.50188 14.5384 9.84003 14.4901C10.0252 14.4634 10.2096 14.4353 10.3941 14.4072C10.4329 14.4007 10.4717 14.3914 10.5083 14.3791C10.5419 14.3676 10.5441 14.3445 10.5178 14.3208C10.5083 14.3114 10.4973 14.3049 10.4863 14.2984ZM7.72988 2.59565C7.75623 2.6115 7.78404 2.62375 7.81039 2.63961C8.1178 2.82985 8.45668 2.92497 8.8146 2.96028C9.00124 2.9783 9.18788 2.97325 9.37525 2.95163C9.58824 2.92641 9.79465 2.87957 9.99519 2.80535C10.1511 2.7477 10.2989 2.6742 10.4365 2.58196C10.4541 2.56971 10.4827 2.56178 10.4753 2.52143C10.0706 2.41478 9.65412 2.37154 9.23472 2.36361C8.71139 2.3528 8.19246 2.40253 7.67938 2.52071C7.68084 2.56683 7.70646 2.58124 7.72988 2.59565ZM8.42667 13.7291C8.45742 13.7652 8.48816 13.7702 8.52988 13.763C8.58258 13.7529 8.63674 13.7464 8.6909 13.7392C8.77654 13.727 8.8629 13.7162 8.94854 13.7025C9.01075 13.6924 9.01075 13.6902 9.01075 13.6282C9.01075 13.469 9.01002 13.3097 9.01002 13.1505C9.00856 12.8939 9.00856 12.6381 9.00709 12.3823C9.00636 12.3167 9.00051 12.3095 8.9361 12.3117C8.82704 12.3146 8.71798 12.3167 8.60966 12.3261C8.46693 12.3383 8.32421 12.3542 8.18221 12.3737C8.01167 12.3967 7.8426 12.4248 7.67352 12.4536C7.6479 12.458 7.62522 12.4781 7.5974 12.4926C7.60911 12.5171 7.6135 12.5293 7.62009 12.5408C7.85065 12.9617 8.11707 13.3595 8.42667 13.7291ZM8.90389 3.18367C8.77288 3.16494 8.6404 3.15269 8.51011 3.12818C8.44278 3.11449 8.40179 3.13107 8.35934 3.18223C8.06364 3.53821 7.80746 3.9187 7.58349 4.32152C7.57178 4.3417 7.563 4.36332 7.55349 4.38421C7.563 4.39142 7.56739 4.39646 7.57252 4.39863C7.59081 4.40583 7.60911 4.41376 7.62814 4.41808C7.84552 4.47357 8.06803 4.49735 8.29054 4.52545C8.40691 4.53987 8.52402 4.54996 8.64113 4.5586C8.74726 4.56725 8.85412 4.57229 8.96537 4.54491C8.96757 4.52545 8.9705 4.51032 8.9705 4.49591C8.97342 4.22063 8.97782 3.94536 8.97855 3.66937C8.97855 3.53245 8.97269 3.39481 8.9683 3.25717C8.9661 3.19448 8.96464 3.19232 8.90389 3.18367ZM7.85211 14.0008C7.94068 13.9597 8.03143 13.923 8.12073 13.8833C8.14781 13.8711 8.17343 13.856 8.20563 13.8387C8.19319 13.8178 8.18733 13.8062 8.18002 13.7961C7.89896 13.4013 7.6179 13.0064 7.38295 12.5826C7.35879 12.5394 7.34123 12.5336 7.28999 12.5473C6.97526 12.6288 6.66785 12.7296 6.37216 12.8644C6.28286 12.9055 6.2814 12.9105 6.3502 12.9768C6.61369 13.2362 6.89914 13.4704 7.21314 13.6679C7.39466 13.7825 7.58569 13.8833 7.77233 13.9893C7.79649 14.003 7.81991 14.0159 7.85211 14.0008ZM8.15879 3.04315C8.12512 3.0273 8.10389 3.01577 8.08194 3.00712C8.00508 2.97686 7.92604 2.95163 7.85065 2.91777C7.79575 2.89326 7.75037 2.89831 7.69768 2.92713C7.3566 3.11161 7.03382 3.32419 6.73373 3.56848C6.59613 3.6809 6.46365 3.7998 6.3297 3.91654C6.30335 3.93887 6.27774 3.96266 6.28579 4.00877C6.30262 4.0167 6.32165 4.02751 6.34141 4.03472C6.51927 4.09957 6.69567 4.16659 6.87499 4.2264C6.99429 4.26675 7.11653 4.29774 7.23803 4.33089C7.29731 4.34674 7.30902 4.34026 7.3405 4.29125C7.34855 4.27828 7.3566 4.26531 7.36392 4.25234C7.59667 3.86753 7.83015 3.48417 8.11341 3.13323C8.13244 3.10873 8.14196 3.07702 8.15879 3.04315ZM6.10134 13.0474C6.05596 13.0035 6.05523 13.0035 5.99521 13.0309C5.81516 13.1094 5.64974 13.2139 5.48213 13.3155C5.41187 13.3587 5.41114 13.3688 5.48067 13.4171C5.76685 13.6153 6.06914 13.7868 6.38533 13.9338C6.68981 14.0743 7.00454 14.1882 7.32952 14.2739C7.35733 14.2811 7.38368 14.2883 7.41149 14.2718C7.46346 14.24 7.51323 14.2069 7.55715 14.1478C7.51762 14.1219 7.48395 14.0988 7.44955 14.0772C6.96868 13.7745 6.51122 13.4409 6.10134 13.0474ZM5.99668 3.87618C6.03474 3.89131 6.05743 3.87402 6.08231 3.85024C6.50317 3.44886 6.96648 3.10152 7.46126 2.79526C7.48322 2.78157 7.50371 2.76716 7.54031 2.74338C7.47297 2.6951 7.41808 2.6533 7.35953 2.61727C7.34416 2.60718 7.31781 2.61222 7.29731 2.61439C7.27609 2.61727 7.25193 2.63384 7.2351 2.62808C7.18459 2.61006 7.15312 2.63312 7.11799 2.66195C7.10262 2.67492 7.07847 2.67852 7.05797 2.68645C6.90939 2.74121 6.75861 2.79166 6.6115 2.85075C6.20015 3.01721 5.81296 3.22835 5.45139 3.48417C5.43163 3.49858 5.41333 3.51587 5.39284 3.53317C5.40308 3.54542 5.40748 3.55335 5.41406 3.55839C5.59631 3.68594 5.78808 3.79475 5.99668 3.87618ZM15.0374 8.45424C15.0374 8.31588 15.0374 8.17825 15.0374 8.04061C15.0389 7.87847 15.0221 7.71849 14.9979 7.55852C14.9613 7.31783 14.8244 7.15569 14.5997 7.06201C14.4826 7.01229 14.3582 6.99572 14.2316 6.98131C14.0296 6.95753 13.8356 6.98779 13.6468 7.05265C13.4506 7.11966 13.3072 7.24433 13.2501 7.44898C13.1893 7.66805 13.1586 7.89144 13.1542 8.11843C13.1513 8.27985 13.152 8.44127 13.1542 8.60269C13.1586 8.81094 13.163 9.01992 13.1944 9.22674C13.2149 9.35717 13.2428 9.48544 13.3079 9.60218C13.3723 9.71676 13.4601 9.80611 13.5846 9.858C13.8729 9.97834 14.1694 10.0036 14.4731 9.92645C14.7652 9.85223 14.9423 9.66703 14.9921 9.37519C15.0191 9.21665 15.0279 9.05451 15.036 8.89309C15.0426 8.74753 15.0374 8.60053 15.0374 8.45424ZM15.0374 8.45424C15.0374 8.31588 15.0374 8.17825 15.0374 8.04061C15.0389 7.87847 15.0221 7.71849 14.9979 7.55852C14.9613 7.31783 14.8244 7.15569 14.5997 7.06201C14.4826 7.01229 14.3582 6.99572 14.2316 6.98131C14.0296 6.95753 13.8356 6.98779 13.6468 7.05265C13.4506 7.11966 13.3072 7.24433 13.2501 7.44898C13.1893 7.66805 13.1586 7.89144 13.1542 8.11843C13.1513 8.27985 13.152 8.44127 13.1542 8.60269C13.1586 8.81094 13.163 9.01992 13.1944 9.22674C13.2149 9.35717 13.2428 9.48544 13.3079 9.60218C13.3723 9.71676 13.4601 9.80611 13.5846 9.858C13.8729 9.97834 14.1694 10.0036 14.4731 9.92645C14.7652 9.85223 14.9423 9.66703 14.9921 9.37519C15.0191 9.21665 15.0279 9.05451 15.036 8.89309C15.0426 8.74753 15.0374 8.60053 15.0374 8.45424Z" fill="black"></path><path d="M19.9063 10.1785C20.4326 9.75049 20.8468 9.39884 21.1506 9.12428C21.4536 8.84973 21.7098 8.56148 21.9191 8.26026C22.1284 7.95905 22.2331 7.66576 22.2331 7.3804C22.2331 7.16349 22.1819 6.99487 22.0801 6.87308C21.9784 6.7513 21.8254 6.69077 21.6212 6.69077C21.417 6.69077 21.2575 6.76643 21.1425 6.91704C21.0269 7.06765 20.9691 7.28023 20.9691 7.55478H19.6406C19.6516 7.10584 19.749 6.7304 19.9341 6.42919C20.1193 6.12797 20.3638 5.90602 20.6668 5.76334C20.9698 5.62066 21.3072 5.54932 21.6776 5.54932C22.3166 5.54932 22.7982 5.71073 23.1224 6.03285C23.4474 6.35496 23.6099 6.77508 23.6099 7.2932C23.6099 7.85888 23.4137 8.38277 23.0221 8.8663C22.6305 9.34983 22.1314 9.82111 21.5246 10.2809H23.6984V11.3827H19.6567V10.376C19.839 10.2333 19.9224 10.167 19.9063 10.1778V10.1785Z" fill="black"></path><path d="M27.8458 6.69078L25.8249 11.4627H24.4159L26.461 6.84139H23.957V5.68408H27.8458V6.69078Z" fill="black"></path><path d="M28.3143 6.34188C28.6715 5.81871 29.2468 5.55713 30.0417 5.55713C30.8366 5.55713 31.4119 5.81871 31.7683 6.34188C32.1255 6.86504 32.3033 7.58133 32.3033 8.49003C32.3033 9.39872 32.1247 10.1309 31.7683 10.654C31.4111 11.1772 30.8358 11.4388 30.0417 11.4388C29.2475 11.4388 28.6715 11.1772 28.3143 10.654C27.9572 10.1309 27.7793 9.40953 27.7793 8.49003C27.7793 7.57052 27.9579 6.86504 28.3143 6.34188ZM30.7743 7.25778C30.6565 6.96953 30.412 6.82541 30.0417 6.82541C29.6713 6.82541 29.4269 6.96953 29.309 7.25778C29.1912 7.54602 29.1319 7.95677 29.1319 8.49003C29.1319 8.84961 29.1531 9.14651 29.1963 9.38215C29.2395 9.61707 29.3266 9.80731 29.4583 9.95287C29.5901 10.0984 29.7848 10.1705 30.0424 10.1705C30.3001 10.1705 30.4947 10.0977 30.6258 9.95287C30.7575 9.80731 30.8446 9.61707 30.8878 9.38215C30.931 9.14723 30.9522 8.84961 30.9522 8.49003C30.9522 7.95605 30.8929 7.5453 30.7751 7.25778H30.7743Z" fill="black"></path><path d="M32.5975 6.34188C32.9547 5.81871 33.53 5.55713 34.3249 5.55713C35.1198 5.55713 35.6951 5.81871 36.0515 6.34188C36.4087 6.86504 36.5865 7.58133 36.5865 8.49003C36.5865 9.39872 36.408 10.1309 36.0515 10.654C35.6943 11.1772 35.119 11.4388 34.3249 11.4388C33.5307 11.4388 32.9547 11.1772 32.5975 10.654C32.2404 10.1309 32.0625 9.40953 32.0625 8.49003C32.0625 7.57052 32.2411 6.86504 32.5975 6.34188ZM35.0575 7.25778C34.9397 6.96953 34.6952 6.82541 34.3249 6.82541C33.9545 6.82541 33.7101 6.96953 33.5922 7.25778C33.4744 7.54602 33.4151 7.95677 33.4151 8.49003C33.4151 8.84961 33.4363 9.14651 33.4795 9.38215C33.5227 9.61707 33.6098 9.80731 33.7415 9.95287C33.8733 10.0984 34.068 10.1705 34.3256 10.1705C34.5833 10.1705 34.778 10.0977 34.909 9.95287C35.0407 9.80731 35.1278 9.61707 35.171 9.38215C35.2142 9.14723 35.2354 8.84961 35.2354 8.49003C35.2354 7.95605 35.1761 7.5453 35.0583 7.25778H35.0575Z" fill="black"></path><path d="M36.752 6.93662V5.67627H38.9821V11.4628H37.549V6.93662H36.752Z" fill="black"></path></g><defs><clipPath id="clip0_4595_20185"><rect width="39" height="17" fill="white"></rect></clipPath></defs></svg>