<svg width="87" height="23" viewBox="0 0 87 23" fill="none" xmlns="http://www.w3.org/2000/svg">
<path d="M76.6106 19.2354C77.5111 19.2354 77.8625 18.8151 77.8625 18.1459C77.8625 17.4455 77.5111 17.0408 76.6106 17.0408H75.5345V19.2354H76.6106ZM76.6106 19.7023H75.5345V22.0215H75V16.5816H76.6106C77.847 16.5816 78.4117 17.2509 78.4117 18.1459C78.4117 19.0253 77.8625 19.7023 76.6106 19.7023Z" fill="white"/>
<path fill-rule="evenodd" clip-rule="evenodd" d="M75.5345 22.0215V19.7023H76.6106C77.8625 19.7023 78.4117 19.0253 78.4117 18.1459C78.4117 17.2509 77.847 16.5816 76.6106 16.5816H75V22.0215H75.5345ZM75.7845 19.9523H76.6106C77.2804 19.9523 77.7997 19.7706 78.1528 19.4351C78.5069 19.0986 78.6617 18.6379 78.6617 18.1459C78.6617 17.6453 78.5025 17.1825 78.1464 16.8463C77.7916 16.5113 77.2727 16.3316 76.6106 16.3316H74.75V22.2715H75.7845V19.9523ZM77.4029 18.7596C77.2665 18.888 77.0265 18.9854 76.6106 18.9854H75.7845V17.2908H76.6106C77.0289 17.2908 77.2677 17.3854 77.4029 17.5127C77.5348 17.6369 77.6125 17.8346 77.6125 18.1459C77.6125 18.4387 77.5363 18.6339 77.4029 18.7596ZM77.8625 18.1459C77.8625 18.8151 77.5111 19.2354 76.6106 19.2354H75.5345V17.0408H76.6106C77.5111 17.0408 77.8625 17.4455 77.8625 18.1459Z" fill="white"/>
<path d="M79.8984 22.0215H79.3643V17.7724H79.8984V18.5272C80.1273 18.0058 80.6084 17.6945 81.3258 17.6945V18.2626H81.1809C80.4864 18.2626 79.8984 18.5817 79.8984 19.6479V22.0215Z" fill="white"/>
<path fill-rule="evenodd" clip-rule="evenodd" d="M80.1484 22.2715V19.6479C80.1484 19.16 80.2818 18.8912 80.4476 18.7402C80.6178 18.5851 80.8672 18.5126 81.1809 18.5126H81.5758V17.4445H81.3258C80.8494 17.4445 80.4509 17.5706 80.1484 17.8045V17.5224H79.1143V22.2715H80.1484ZM79.8984 18.5272C79.9622 18.3818 80.0457 18.2527 80.1484 18.1422C80.3694 17.9043 80.6797 17.7523 81.0758 17.708C81.1556 17.6991 81.239 17.6945 81.3258 17.6945V18.2626H81.1809C80.4864 18.2626 79.8984 18.5817 79.8984 19.6479V22.0215H79.3643V17.7724H79.8984V18.5272Z" fill="white"/>
<path d="M84.4327 21.6092C85.219 21.6092 85.982 21.0645 85.982 19.8971C85.982 18.7298 85.2341 18.185 84.4404 18.185C83.6468 18.185 82.9062 18.7298 82.9062 19.8971C82.9062 21.0645 83.639 21.6092 84.4327 21.6092ZM84.4327 22.084C83.2575 22.084 82.3643 21.2435 82.3643 19.8971C82.3643 18.543 83.2803 17.7103 84.4482 17.7103C85.6234 17.7103 86.5317 18.543 86.5317 19.8971C86.5317 21.2435 85.6083 22.084 84.4327 22.084Z" fill="white"/>
<path fill-rule="evenodd" clip-rule="evenodd" d="M85.3276 21.012C85.091 21.2429 84.7691 21.3592 84.4327 21.3592C84.0926 21.3592 83.7777 21.2431 83.5485 21.0141C83.321 20.7868 83.1562 20.4267 83.1562 19.8971C83.1562 19.3684 83.3224 19.0083 83.5517 18.7808C83.7831 18.5513 84.1002 18.435 84.4404 18.435C84.7808 18.435 85.1001 18.5515 85.3334 18.7814C85.5644 19.0091 85.732 19.3691 85.732 19.8971C85.732 20.4237 85.5616 20.7837 85.3276 21.012ZM82.7791 21.6703C83.2005 22.101 83.784 22.334 84.4327 22.334C85.0811 22.334 85.6713 22.1014 86.1 21.6721C86.5293 21.242 86.7817 20.6294 86.7817 19.8971C86.7817 19.1624 86.5341 18.5498 86.1082 18.12C85.6829 17.6907 85.0959 17.4603 84.4482 17.4603C83.8038 17.4603 83.217 17.6909 82.7909 18.1197C82.3642 18.5492 82.1143 19.1618 82.1143 19.8971C82.1143 20.627 82.3574 21.2393 82.7791 21.6703ZM85.982 19.8971C85.982 21.0645 85.219 21.6092 84.4327 21.6092C83.639 21.6092 82.9062 21.0645 82.9062 19.8971C82.9062 18.7298 83.6468 18.185 84.4404 18.185C85.2341 18.185 85.982 18.7298 85.982 19.8971ZM82.3643 19.8971C82.3643 21.2435 83.2575 22.084 84.4327 22.084C85.6083 22.084 86.5317 21.2435 86.5317 19.8971C86.5317 18.543 85.6234 17.7103 84.4482 17.7103C83.2803 17.7103 82.3643 18.543 82.3643 19.8971Z" fill="white"/>
<path d="M0.408203 2.92954H2.81448V14.7124H0.408203V2.92954Z" fill="white"/>
<path d="M6.42935 2.92996H7.62698V8.83847C7.62698 9.51619 7.08836 10.0654 6.42364 10.0654C6.09148 10.0654 5.79075 9.92813 5.57285 9.70595C5.35536 9.48419 5.2207 9.17756 5.2207 8.83847V2.92996H6.30082C6.34407 2.92996 6.38691 2.93042 6.42935 2.93125V2.92996Z" fill="white"/>
<path d="M7.27443 12.3018C7.49233 12.5235 7.62698 12.8301 7.62698 13.1688V14.7124H5.2207V13.1688C5.2207 12.4915 5.75933 11.9423 6.42364 11.9423C6.7562 11.9423 7.05694 12.0795 7.27443 12.3018Z" fill="white"/>
<path d="M11.2437 2.92954C11.6595 2.92954 12.0582 2.96074 12.4381 3.02149V4.47275C12.4381 5.15047 11.8995 5.69971 11.2352 5.69971C10.903 5.69971 10.6023 5.56241 10.3848 5.34023C10.1669 5.11847 10.0322 4.81184 10.0322 4.47275V2.92954H11.2437Z" fill="white"/>
<path d="M12.0855 7.93641C12.3034 8.15817 12.4381 8.46485 12.4381 8.80393V14.6171C12.0582 14.6799 11.6595 14.7124 11.2437 14.7124H10.0322V8.80393C10.0322 8.12617 10.5709 7.57697 11.2352 7.57697C11.5673 7.57697 11.8681 7.71427 12.0855 7.93641Z" fill="white"/>
<path d="M17.2496 8.78809C17.2496 10.8539 16.3744 12.618 14.8438 13.6714V3.94062C16.3744 4.96746 17.2496 6.70201 17.2496 8.78809Z" fill="white"/>
<path d="M7.62698 13.1688V14.7124H5.2207V13.1688C5.2207 12.4915 5.75933 11.9423 6.42364 11.9423C6.7562 11.9423 7.05694 12.0795 7.27443 12.3018C7.49233 12.5235 7.62698 12.8301 7.62698 13.1688Z" fill="white"/>
<path d="M7.62698 2.92996V8.83847C7.62698 9.51619 7.08836 10.0654 6.42364 10.0654C6.09148 10.0654 5.79075 9.92813 5.57285 9.70595C5.35536 9.48419 5.2207 9.17756 5.2207 8.83847V2.92996H6.30082C6.34407 2.92996 6.38691 2.93042 6.42935 2.93125V2.92996H7.62698Z" fill="white"/>
<path d="M12.4381 8.80393V14.6171C12.0582 14.6799 11.6595 14.7124 11.2437 14.7124H10.0322V8.80393C10.0322 8.12617 10.5709 7.57697 11.2352 7.57697C11.5673 7.57697 11.8681 7.71427 12.0855 7.93641C12.3034 8.15817 12.4381 8.46485 12.4381 8.80393Z" fill="white"/>
<path d="M12.4381 3.02149V4.47275C12.4381 5.15047 11.8995 5.69971 11.2352 5.69971C10.903 5.69971 10.6023 5.56241 10.3848 5.34023C10.1669 5.11847 10.0322 4.81184 10.0322 4.47275V2.92954H11.2437C11.6595 2.92954 12.0582 2.96074 12.4381 3.02149Z" fill="white"/>
<path d="M17.2496 8.78809C17.2496 10.8539 16.3744 12.618 14.8438 13.6714V3.94062C16.3744 4.96746 17.2496 6.70201 17.2496 8.78809Z" fill="white"/>
<path d="M2.81448 2.92954V14.7124H0.408203V2.92954H2.81448Z" fill="white"/>
<path d="M27.7622 10.0858H26.1137V11.7501H27.7622C28.4151 11.7501 28.7252 11.5171 28.7252 10.9346C28.7252 10.3688 28.4151 10.0858 27.7622 10.0858ZM27.5173 5.85877H26.1137V7.52297H27.5173C28.1702 7.52297 28.4803 7.27333 28.4803 6.70749C28.4803 6.12501 28.1702 5.85877 27.5173 5.85877ZM28.5456 14.7124H22.4902V2.92971H28.3824C30.6838 2.92971 32.1691 3.9449 32.1691 5.99187C32.1691 7.40647 31.3693 8.37169 30.2267 8.67125C31.6468 9.02074 32.4302 10.169 32.4302 11.4838C32.4302 13.5474 31.0592 14.7124 28.5456 14.7124Z" fill="white"/>
<path d="M33.1645 5.32617H36.7879V14.7124H33.1645V5.32617ZM32.9033 2.76329C32.9033 1.7315 33.7031 0.916024 34.9925 0.916024C36.2656 0.916024 37.0654 1.7315 37.0654 2.76329C37.0654 3.77847 36.2656 4.57731 34.9925 4.57731C33.7031 4.57731 32.9033 3.77847 32.9033 2.76329Z" fill="white"/>
<path d="M38.7128 8.40502H37.5703V5.32617H38.7128V3.06289H42.3363V5.32617H43.8379V8.40502H42.3363V10.9346C42.3363 11.3673 42.5322 11.567 43.0055 11.567H43.8706V14.7124H42.4995C40.345 14.7124 38.7128 13.7804 38.7128 10.868V8.40502Z" fill="white"/>
<path d="M49.2571 11.4172C50.8567 11.4172 51.9176 10.5019 51.9176 8.78775C51.9176 7.07363 50.8567 6.15829 49.2571 6.15829H48.3921V11.4172H49.2571ZM55.5901 8.78775C55.5901 12.1495 53.2724 14.7124 49.5836 14.7124H44.7686V2.92971H49.5836C53.2724 2.92971 55.5901 5.39279 55.5901 8.78775Z" fill="white"/>
<path d="M59.6605 9.05432H61.815C61.815 8.40526 61.3253 8.1057 60.7867 8.1057C60.1828 8.1057 59.7747 8.40526 59.6605 9.05432ZM60.7867 14.8291C58.0283 14.8291 56.0859 13.0151 56.0859 10.0195C56.0859 7.02394 58.0283 5.20996 60.7867 5.20996C63.5451 5.20996 65.4874 6.99066 65.4874 9.93632C65.4874 10.1693 65.4707 10.4356 65.4381 10.6685H59.6278C59.6768 11.6172 60.1175 11.8834 60.6071 11.8834C61.0805 11.8834 61.3253 11.6172 61.4559 11.3342H65.2912C64.8994 13.3313 63.104 14.8291 60.7867 14.8291Z" fill="white"/>
<path d="M66.1406 3.06289H69.7641V14.7124H66.1406V3.06289Z" fill="white"/>
<path d="M71.5195 8.40502H70.377V5.32617H71.5195V3.06289H75.143V5.32617H76.6446V8.40502H75.143V10.9346C75.143 11.3673 75.3389 11.567 75.8122 11.567H76.6773V14.7124H75.3062C73.1517 14.7124 71.5195 13.7804 71.5195 10.868V8.40502Z" fill="white"/>
<path d="M82.0105 8.43851C81.2597 8.43851 80.6721 8.98775 80.6721 10.0195C80.6721 11.0514 81.2597 11.6006 82.0105 11.6006C82.7613 11.6006 83.3489 11.0514 83.3489 10.0195C83.3489 8.98775 82.7613 8.43851 82.0105 8.43851ZM80.8026 5.20996C82.0268 5.20996 82.9082 5.75912 83.3489 6.60793V5.32642H86.9561V14.7126H83.3489V13.4312C82.9082 14.2799 82.0268 14.8291 80.8026 14.8291C78.6808 14.8291 77 13.0484 77 10.0195C77 6.99066 78.6808 5.20996 80.8026 5.20996Z" fill="white"/>
</svg>
