<svg xmlns="http://www.w3.org/2000/svg" width="45" height="46" viewBox="0 0 45 46" fill="none"><path d="M43.043 22.7466C29.8951 28.8509 10.5647 25.6814 2.54297 23.3335V43.2901H35.9995L43.043 35.6596V22.7466Z" fill="#A6C8FC"></path><path d="M31.5 0.833496H13.5C6.05475 0.833496 0 6.88825 0 14.3335V43.5835C0 44.1802 0.237053 44.7525 0.65901 45.1745C1.08097 45.5964 1.65326 45.8335 2.25 45.8335H31.5C38.9453 45.8335 45 39.7787 45 32.3335V14.3335C45 6.88825 38.9453 0.833496 31.5 0.833496ZM40.5 32.3335C40.5 37.297 36.4635 41.3335 31.5 41.3335H4.5V14.3335C4.5 9.37 8.5365 5.3335 13.5 5.3335H31.5C36.4635 5.3335 40.5 9.37 40.5 14.3335V32.3335Z" fill="#155FF6"></path><path d="M11.248 30.0538V34.5515H15.7458L28.186 22.127L23.6905 17.6315L11.248 30.0538ZM30.3055 20.0075L25.81 15.5075L29.2368 12.083L33.7368 16.5808L30.3055 20.0075Z" fill="#155FF6"></path></svg>