<svg xmlns="http://www.w3.org/2000/svg" width="55" height="55" viewBox="0 0 55 55" fill="none"><path d="M25.7819 6.875L8.02148 17.7604L28.6465 28.6458L46.4069 16.6146L25.7819 6.875Z" fill="#A6C8FC"></path><path d="M26.9277 14.3228L8.02148 25.7811L28.6465 37.8123L46.9798 25.7811L26.9277 14.3228Z" fill="#A6C8FC"></path><path d="M50.4163 18.331C50.4159 17.922 50.306 17.5206 50.0981 17.1684C49.8902 16.8162 49.5918 16.5261 49.2338 16.3281L28.5584 4.8698C28.2187 4.68263 27.8371 4.58447 27.4493 4.58447C27.0614 4.58447 26.6798 4.68263 26.3401 4.8698L5.76552 16.2365C5.40809 16.4344 5.11008 16.7243 4.90234 17.0761C4.6946 17.4279 4.58469 17.8288 4.58399 18.2374C4.58329 18.6459 4.69182 19.0472 4.89835 19.3998C5.10488 19.7523 5.4019 20.0432 5.75864 20.2423L26.4341 31.7923C26.7744 31.9835 27.1582 32.0842 27.5487 32.0846C27.9391 32.085 28.3231 31.9851 28.6639 31.7946L49.2384 20.3363C49.5958 20.1375 49.8935 19.8468 50.1006 19.4942C50.3078 19.1416 50.4168 18.74 50.4163 18.331ZM27.5524 27.1654L11.5955 18.2531L27.447 9.49438L43.4061 18.3379L27.5524 27.1654Z" fill="#155FF6"></path><path d="M47.0121 25.4971L27.4985 36.3367L7.98497 25.4971L5.75977 29.5029L26.3848 40.9612C26.7251 41.1503 27.108 41.2494 27.4974 41.2494C27.8867 41.2494 28.2696 41.1503 28.61 40.9612L49.235 29.5029L47.0121 25.4971Z" fill="#155FF6"></path><path d="M47.0121 34.6636L27.4985 45.5032L7.98497 34.6636L5.75977 38.6694L26.3848 50.1277C26.7251 50.3168 27.108 50.4159 27.4974 50.4159C27.8867 50.4159 28.2696 50.3168 28.61 50.1277L49.235 38.6694L47.0121 34.6636Z" fill="#155FF6"></path></svg>