<svg xmlns="http://www.w3.org/2000/svg" width="55" height="55" viewBox="0 0 55 55" fill="none"><path d="M25.7839 6.875L8.02344 17.7604L28.6484 28.6458L46.4089 16.6146L25.7839 6.875Z" fill="#A6C8FC"></path><path d="M26.9297 14.3228L8.02344 25.7811L28.6484 37.8123L46.9818 25.7811L26.9297 14.3228Z" fill="#A6C8FC"></path><path d="M50.4183 18.331C50.4179 17.922 50.308 17.5206 50.1 17.1684C49.8921 16.8162 49.5937 16.5261 49.2358 16.3281L28.5604 4.8698C28.2207 4.68263 27.8391 4.58447 27.4512 4.58447C27.0633 4.58447 26.6818 4.68263 26.3421 4.8698L5.76747 16.2365C5.41005 16.4344 5.11203 16.7243 4.90429 17.0761C4.69655 17.4279 4.58664 17.8288 4.58594 18.2374C4.58524 18.6459 4.69377 19.0472 4.90031 19.3998C5.10684 19.7523 5.40385 20.0432 5.76059 20.2423L26.436 31.7923C26.7764 31.9835 27.1602 32.0842 27.5506 32.0846C27.941 32.085 28.325 31.9851 28.6658 31.7946L49.2404 20.3363C49.5978 20.1375 49.8955 19.8468 50.1026 19.4942C50.3097 19.1416 50.4187 18.74 50.4183 18.331ZM27.5543 27.1654L11.5975 18.2531L27.4489 9.49438L43.4081 18.3379L27.5543 27.1654Z" fill="#155FF6"></path><path d="M47.0101 25.4971L27.4966 36.3367L7.98302 25.4971L5.75781 29.5029L26.3828 40.9612C26.7232 41.1503 27.1061 41.2494 27.4954 41.2494C27.8847 41.2494 28.2677 41.1503 28.608 40.9612L49.233 29.5029L47.0101 25.4971Z" fill="#155FF6"></path><path d="M47.0101 34.6636L27.4966 45.5032L7.98302 34.6636L5.75781 38.6694L26.3828 50.1277C26.7232 50.3168 27.1061 50.4159 27.4954 50.4159C27.8847 50.4159 28.2677 50.3168 28.608 50.1277L49.233 38.6694L47.0101 34.6636Z" fill="#155FF6"></path></svg>