<svg xmlns="http://www.w3.org/2000/svg" width="55" height="55" viewBox="0 0 55 55" fill="none"><path d="M47.1437 27.5H7.07227V47.9286H47.1437V27.5Z" fill="#A6C8FC"></path><path d="M36.666 27.5H41.2493V36.6667H36.666V27.5Z" fill="#155FF6"></path><path d="M45.834 16.0417V11.4583C45.834 8.93062 43.7784 6.875 41.2507 6.875H11.459C7.66857 6.875 4.58398 9.95958 4.58398 13.75V41.25C4.58398 46.294 8.69523 48.125 11.459 48.125H45.834C48.3617 48.125 50.4173 46.0694 50.4173 43.5417V20.625C50.4173 18.0973 48.3617 16.0417 45.834 16.0417ZM11.459 11.4583H41.2507V16.0417H11.459C10.8689 16.0153 10.3118 15.7623 9.90358 15.3354C9.49536 14.9085 9.26754 14.3406 9.26754 13.75C9.26754 13.1594 9.49536 12.5915 9.90358 12.1646C10.3118 11.7377 10.8689 11.4847 11.459 11.4583ZM45.834 43.5417H11.4865C10.4277 43.5142 9.16732 43.0948 9.16732 41.25V20.201C9.8869 20.46 10.65 20.625 11.459 20.625H45.834V43.5417Z" fill="#155FF6"></path></svg>