<svg xmlns="http://www.w3.org/2000/svg" width="55" height="55" viewBox="0 0 55 55" fill="none"><path d="M46 28C46 33.3043 43.8929 38.3914 40.1421 42.1421C36.3914 45.8929 31.3043 48 26 48C20.6957 48 15.6086 45.8929 11.8579 42.1421C8.10714 38.3914 6 33.3043 6 28L26 28H46Z" fill="#A6C8FC"></path><path d="M27.5006 4.5835C14.8644 4.5835 4.58398 14.8639 4.58398 27.5002C4.58398 40.1364 14.8644 50.4168 27.5006 50.4168C40.1369 50.4168 50.4173 40.1364 50.4173 27.5002C50.4173 14.8639 40.1369 4.5835 27.5006 4.5835ZM27.5006 45.8335C17.3921 45.8335 9.16732 37.6087 9.16732 27.5002C9.16732 17.3916 17.3921 9.16683 27.5006 9.16683C37.6092 9.16683 45.834 17.3916 45.834 27.5002C45.834 37.6087 37.6092 45.8335 27.5006 45.8335Z" fill="#155FF6"></path><path d="M29.7923 16.0415H25.209V28.4486L32.7554 35.995L35.9959 32.7546L29.7923 26.5511V16.0415Z" fill="#155FF6"></path></svg>