<svg xmlns="http://www.w3.org/2000/svg" width="64" height="64" viewBox="0 0 64 64" fill="none"><path d="M7.13547 47.8471H26.4859C25.9753 50.6256 23.9316 55.3581 19.8678 58.3506C19.448 58.6596 19.2734 59.2038 19.4362 59.6997C19.5989 60.1956 20.0624 60.5305 20.5836 60.5305H43.4173C43.9385 60.5305 44.402 60.1956 44.5647 59.6997C44.7274 59.2038 44.5529 58.6596 44.1331 58.3506C40.0693 55.3581 38.0256 50.6256 37.515 47.8471H56.8654C59.1319 47.8471 60.9763 46.0027 60.9763 43.7356C60.9763 35.1158 60.9763 16.9087 60.9763 7.58117C60.9763 5.31407 59.1319 3.46973 56.8654 3.46973H7.13547C4.86778 3.46973 3.02344 5.31407 3.02344 7.58117V43.7356C3.02344 46.0027 4.86778 47.8471 7.13547 47.8471ZM23.7534 58.1154C26.8725 54.8064 28.5399 50.6855 28.9397 47.8548H35.0612C35.4609 50.6855 37.1284 54.8064 40.2475 58.1154H23.7534ZM56.8654 45.432H7.13547C6.20032 45.432 5.43853 44.6708 5.43853 43.7356V40.6643C23.1686 40.6643 40.8663 40.6643 58.5612 40.6643V43.7356C58.5612 44.6708 57.8006 45.432 56.8654 45.432ZM19.5741 26.6849C17.08 26.6849 15.0506 24.6555 15.0506 22.1614C15.0506 19.6672 17.08 17.6378 19.5741 17.6378C22.0682 17.6378 24.0977 19.6672 24.0977 22.1614C24.0977 24.6555 22.0682 26.6849 19.5741 26.6849ZM15.4079 29.1H23.7369C26.4845 29.1 28.7192 31.3353 28.7192 34.0823V38.2492H10.4385V34.0823C10.4385 31.3353 12.6673 29.1 15.4079 29.1ZM7.13547 5.88482H56.8654C57.8006 5.88482 58.5612 6.64602 58.5612 7.58117V38.2492H31.1343V34.0823C31.1343 30.3489 28.3517 27.2609 24.7529 26.7631C25.8438 25.5369 26.5128 23.9277 26.5128 22.1614C26.5128 18.3353 23.3996 15.2227 19.5741 15.2227C15.7487 15.2227 12.6355 18.3353 12.6355 22.1614C12.6355 23.9276 13.3045 25.5367 14.3952 26.7628C10.802 27.26 8.02344 30.3483 8.02344 34.0823V38.2492H5.43853V7.58117C5.43853 6.64602 6.20032 5.88482 7.13547 5.88482Z" fill="#155FF6"></path><path d="M32.9597 41.8207H31.0552C30.3878 41.8207 29.8477 42.3614 29.8477 43.0283C29.8477 43.6951 30.3878 44.2358 31.0552 44.2358H32.9597C33.6271 44.2358 34.1672 43.6951 34.1672 43.0283C34.1672 42.3614 33.6271 41.8207 32.9597 41.8207ZM37.2014 12.4551H52.3889C53.0564 12.4551 53.5965 11.9144 53.5965 11.2476C53.5965 10.5807 53.0564 10.04 52.3889 10.04H37.2014C36.534 10.04 35.9939 10.5807 35.9939 11.2476C35.9939 11.9144 36.534 12.4551 37.2014 12.4551ZM37.2014 17.9481H52.3889C53.0564 17.9481 53.5965 17.4074 53.5965 16.7405C53.5965 16.0736 53.0564 15.533 52.3889 15.533H37.2014C36.534 15.533 35.9939 16.0736 35.9939 16.7405C35.9939 17.4074 36.534 17.9481 37.2014 17.9481ZM37.2014 23.4416H52.3889C53.0564 23.4416 53.5965 22.9009 53.5965 22.234C53.5965 21.5672 53.0564 21.0265 52.3889 21.0265H37.2014C36.534 21.0265 35.9939 21.5672 35.9939 22.234C35.9939 22.9009 36.534 23.4416 37.2014 23.4416ZM37.2014 28.9351H52.3889C53.0564 28.9351 53.5965 28.3944 53.5965 27.7275C53.5965 27.0607 53.0564 26.52 52.3889 26.52H37.2014C36.534 26.52 35.9939 27.0607 35.9939 27.7275C35.9939 28.3944 36.534 28.9351 37.2014 28.9351ZM37.2014 34.428H52.3889C53.0564 34.428 53.5965 33.8873 53.5965 33.2205C53.5965 32.5536 53.0564 32.0129 52.3889 32.0129H37.2014C36.534 32.0129 35.9939 32.5536 35.9939 33.2205C35.9939 33.8873 36.534 34.428 37.2014 34.428Z" fill="#155FF6"></path></svg>