<svg width="30" height="30" viewBox="0 0 30 30" fill="none" xmlns="http://www.w3.org/2000/svg">
<path d="M5.9375 13.4375C6.9375 20.1875 12.2917 25 15 25.625C21 23.875 24.0625 16.1458 24.6875 13.4375C16.6875 18.1875 8.85417 15.4167 5.9375 13.4375Z" fill="#A6C8FC"/>
<path d="M14.5363 27.3874C14.6806 27.4574 14.8383 27.4958 14.9988 27.4999C15.1756 27.4991 15.3503 27.4607 15.5113 27.3874C27.4988 22.0874 26.2488 8.74988 26.2488 8.62488C26.2265 8.41573 26.1518 8.21558 26.0316 8.04296C25.9115 7.87035 25.7497 7.73084 25.5613 7.63738L15.5613 2.63738C15.3868 2.54946 15.1941 2.50366 14.9988 2.50366C14.8034 2.50366 14.6107 2.54946 14.4363 2.63738L4.43626 7.63738C4.24784 7.73084 4.08605 7.87035 3.96587 8.04296C3.8457 8.21558 3.77102 8.41573 3.74876 8.62488C3.74876 8.74988 2.59876 22.0874 14.5363 27.3874ZM6.24876 9.53738L14.9988 5.14988L23.7488 9.53738C23.8113 12.0374 23.4113 20.7874 14.9988 24.8749C6.57376 20.7874 6.17376 12.0499 6.24876 9.53738Z" fill="#155FF6"/>
<path d="M13.8242 20H16.3242V16.25H20.0867V13.75H16.3242V10H13.8242V13.75H10.0742V16.25H13.8242V20Z" fill="#155FF6"/>
</svg>
