<svg xmlns="http://www.w3.org/2000/svg" width="46" height="46" viewBox="0 0 46 46" fill="none"><path d="M3.5 2.5V23V45H24V2.5H3.5Z" fill="#A6C8FC"></path><path d="M0 5.11111V40.8889C0 43.7077 2.29233 46 5.11111 46H40.8889C43.7077 46 46 43.7077 46 40.8889V5.11111C46 2.29233 43.7077 0 40.8889 0H5.11111C2.29233 0 0 2.29233 0 5.11111ZM40.8914 40.8889H5.11111V5.11111H40.8889L40.8914 40.8889Z" fill="#155FF6"></path><path d="M20.4449 10.2222H25.556V35.7777H20.4449V10.2222ZM30.6671 17.8888H35.7782V35.7777H30.6671V17.8888ZM10.2227 22.9999H15.3338V35.7777H10.2227V22.9999Z" fill="#155FF6"></path></svg>