<svg xmlns="http://www.w3.org/2000/svg" width="64" height="64" viewBox="0 0 64 64" fill="none"><g id="shared-users-network"><path id="Vector" d="M52.1443 16.2294C53.4086 16.2294 54.4386 15.1994 54.4386 13.9351V12.643H59.7736C60.0938 12.643 60.401 12.5158 60.6274 12.2893C60.8539 12.0628 60.9811 11.7557 60.9811 11.4354C60.9811 11.1152 60.8539 10.808 60.6274 10.5816C60.401 10.3551 60.0938 10.2279 59.7736 10.2279H54.4386V8.93582C54.4386 7.67031 53.4086 6.64148 52.1443 6.64148H43.3775C42.112 6.64148 41.0832 7.67031 41.0832 8.93582V10.2279H23.2936V8.93582C23.2936 7.67031 22.2647 6.64148 20.9992 6.64148H12.2324C10.9681 6.64148 9.9381 7.67031 9.9381 8.93582V10.2279H4.22641C3.90615 10.2279 3.599 10.3551 3.37254 10.5816C3.14608 10.808 3.01886 11.1152 3.01886 11.4354C3.01886 11.7557 3.14608 12.0628 3.37254 12.2893C3.599 12.5158 3.90615 12.643 4.22641 12.643H9.9381V13.9351C9.9381 15.1994 10.9681 16.2294 12.2324 16.2294H15.4083V30.4543H6.0498C4.58505 30.4543 3.3932 31.6462 3.3932 33.1109V54.7019C3.3932 56.1666 4.58505 57.3585 6.0498 57.3585H27.1819C28.6466 57.3585 29.8385 56.1666 29.8385 54.7019V33.1109C29.8385 31.6462 28.6466 30.4543 27.1819 30.4543H17.8234V16.2294H20.9992C22.2647 16.2294 23.2936 15.1994 23.2936 13.9351V12.643H41.082V13.9351C41.082 15.1994 42.112 16.2294 43.3763 16.2294H46.5521V30.4543H37.1924C35.7277 30.4543 34.5358 31.6462 34.5358 33.1109V54.7019C34.5358 56.1666 35.7277 57.3585 37.1924 57.3585H58.3245C59.7893 57.3585 60.9811 56.1666 60.9811 54.7019V33.1109C60.9811 31.6462 59.7893 30.4543 58.3245 30.4543H48.9684V16.2294H52.1443ZM13.4038 42.3559C13.4038 40.4842 14.813 38.9711 16.5808 38.9711C18.3595 38.9711 19.7543 40.5047 19.7543 42.3559C19.7543 44.2071 18.2786 46.8081 16.5808 46.8081C14.8721 46.8081 13.4038 44.2167 13.4038 42.3559ZM20.4727 49.2232C21.6151 49.2232 22.5449 50.153 22.5449 51.2954V54.9434H10.6143V51.2954C10.6143 50.153 11.5441 49.2232 12.6865 49.2232H20.4727ZM27.4234 33.1109V54.7019C27.4234 54.8323 27.3123 54.9434 27.1819 54.9434H24.96V51.2954C24.9569 50.1393 24.5073 49.0291 23.7051 48.1966C22.903 47.364 21.8103 46.8735 20.6551 46.8274C21.6694 45.4134 22.1693 43.7989 22.1693 42.3559C22.1693 39.139 19.6818 36.556 16.5808 36.556C13.4823 36.556 10.9887 39.133 10.9887 42.3559C10.9887 43.7929 11.4826 45.4025 12.5041 46.8262C10.1144 46.9253 8.19803 48.8839 8.19803 51.2954V54.9434H6.0498C5.98604 54.9424 5.92516 54.9167 5.88006 54.8716C5.83497 54.8265 5.80923 54.7656 5.80829 54.7019V33.1109C5.80829 32.9805 5.91939 32.8694 6.0498 32.8694H27.1819C27.3147 32.8694 27.4246 32.9805 27.4246 33.1109H27.4234ZM20.8785 13.8143H12.3532V9.05657H20.8785V13.8143ZM44.5826 42.3559C44.5826 40.4842 45.9918 38.9711 47.7609 38.9711C49.5384 38.9711 50.9343 40.5047 50.9343 42.3559C50.9343 44.2071 49.4587 46.8081 47.7609 46.8081C46.051 46.8081 44.5826 44.2167 44.5826 42.3559ZM51.6516 49.2232C52.7952 49.2232 53.7238 50.153 53.7238 51.2954V54.9434H41.7932V51.2954C41.7932 50.153 42.723 49.2232 43.8653 49.2232H51.6516ZM58.566 33.1109V54.7019C58.566 54.8323 58.4549 54.9434 58.3245 54.9434H56.1389V51.2954C56.1357 50.1393 55.6862 49.0291 54.884 48.1966C54.0819 47.364 52.9891 46.8735 51.834 46.8274C52.8483 45.4134 53.3494 43.7989 53.3494 42.3559C53.3494 39.139 50.8619 36.556 47.7609 36.556C44.6611 36.556 42.1675 39.133 42.1675 42.3559C42.1675 43.7929 42.6614 45.4025 43.683 46.8262C41.2945 46.9253 39.3769 48.8839 39.3769 51.2954V54.9434H37.1924C37.1287 54.9424 37.0678 54.9167 37.0227 54.8716C36.9776 54.8265 36.9519 54.7656 36.9509 54.7019V33.1109C36.9509 32.9805 37.062 32.8694 37.1924 32.8694H58.3245C58.4573 32.8694 58.566 32.9805 58.566 33.1109ZM43.497 9.05657H52.0235V13.8143H43.4983L43.497 9.05657Z" fill="#155FF6"></path></g></svg>