<svg xmlns="http://www.w3.org/2000/svg" width="55" height="55" viewBox="0 0 55 55" fill="none"><rect x="10" y="20" width="33" height="23" fill="#A6C8FC"></rect><path d="M43.5417 32.0833H38.9583V38.9583H32.0833V43.5417H38.9583V50.4167H43.5417V43.5417H50.4167V38.9583H43.5417V32.0833ZM9.16667 43.5417H16.0417V38.9583H11.4583V34.375H6.875V41.25C6.875 41.8578 7.11644 42.4407 7.54621 42.8705C7.97598 43.3002 8.55888 43.5417 9.16667 43.5417ZM43.5417 9.16667C43.5417 8.55888 43.3002 7.97598 42.8705 7.54621C42.4407 7.11644 41.8578 6.875 41.25 6.875H34.375V11.4583H38.9583V16.0417H43.5417V9.16667ZM11.4583 11.4583H16.0417V6.875H9.16667C8.55888 6.875 7.97598 7.11644 7.54621 7.54621C7.11644 7.97598 6.875 8.55888 6.875 9.16667V16.0417H11.4583V11.4583ZM6.875 20.625H11.4583V29.7917H6.875V20.625ZM38.9583 20.625H43.5417V27.5H38.9583V20.625ZM20.625 6.875H29.7917V11.4583H20.625V6.875ZM20.625 38.9583H27.5V43.5417H20.625V38.9583Z" fill="#155FF6"></path></svg>