<svg xmlns="http://www.w3.org/2000/svg" width="13" height="12" viewBox="0 0 13 12" fill="none"><path d="M5.975 11.4751C5.8375 11.3376 5.7655 11.1626 5.759 10.9501C5.753 10.7376 5.81875 10.5626 5.95625 10.4251L9.63125 6.7501H1.25C1.0375 6.7501 0.85925 6.6781 0.71525 6.5341C0.57175 6.3906 0.5 6.2126 0.5 6.0001C0.5 5.7876 0.57175 5.60935 0.71525 5.46535C0.85925 5.32185 1.0375 5.2501 1.25 5.2501H9.63125L5.95625 1.5751C5.81875 1.4376 5.753 1.2626 5.759 1.0501C5.7655 0.837598 5.8375 0.662597 5.975 0.525097C6.1125 0.387597 6.2875 0.318848 6.5 0.318848C6.7125 0.318848 6.8875 0.387597 7.025 0.525097L11.975 5.4751C12.05 5.5376 12.1033 5.6156 12.1348 5.7091C12.1658 5.8031 12.1813 5.9001 12.1813 6.0001C12.1813 6.1001 12.1658 6.19385 12.1348 6.28135C12.1033 6.36885 12.05 6.4501 11.975 6.5251L7.025 11.4751C6.8875 11.6126 6.7125 11.6813 6.5 11.6813C6.2875 11.6813 6.1125 11.6126 5.975 11.4751Z" fill="#155FF6"></path></svg>